<?xml version="1.0" encoding="UTF-8" ?>
<!DOCTYPE svg PUBLIC "-//W3C//DTD SVG 1.1//EN" "http://www.w3.org/Graphics/SVG/1.1/DTD/svg11.dtd">
<svg width="115pt" height="115pt" viewBox="0 0 115 115" version="1.1" xmlns="http://www.w3.org/2000/svg">
<g id="#ffffffff">
<path fill="#ffffff" opacity="1.00" d=" M 0.00 0.00 L 26.69 0.00 C 17.72 1.53 8.43 6.01 4.11 14.42 C 1.74 18.14 0.75 22.46 0.00 26.74 L 0.00 0.00 Z" />
<path fill="#ffffff" opacity="1.00" d=" M 88.93 0.00 L 115.00 0.00 L 115.00 23.73 C 113.43 17.82 110.79 11.99 106.06 7.94 C 101.52 3.27 95.04 1.55 88.93 0.00 Z" />
<path fill="#ffffff" opacity="1.00" d=" M 57.56 11.73 C 65.38 11.70 73.20 11.60 81.01 11.78 C 91.93 12.26 101.37 22.08 101.21 33.05 C 101.20 49.03 101.30 65.01 101.16 80.99 C 101.11 92.09 91.06 101.61 80.07 101.63 C 65.39 101.68 50.71 101.68 36.03 101.63 C 25.25 101.35 15.50 91.78 15.57 80.89 C 15.42 73.01 15.61 65.13 15.46 57.25 C 15.52 49.16 15.45 41.07 15.48 32.97 C 15.61 22.88 23.65 13.09 33.91 12.14 C 41.78 11.65 49.69 12.40 57.56 11.73 M 32.30 17.12 C 25.51 19.15 20.08 25.67 20.22 32.89 C 20.24 48.96 20.16 65.03 20.26 81.09 C 20.45 89.40 27.72 96.51 35.96 96.82 C 50.66 96.87 65.37 96.84 80.07 96.83 C 86.96 96.98 93.37 92.08 95.50 85.62 C 96.78 82.20 96.48 78.51 96.50 74.94 C 96.48 60.96 96.51 46.97 96.49 32.99 C 96.54 24.64 89.49 16.97 81.10 16.56 C 66.74 16.42 52.37 16.58 38.00 16.49 C 36.09 16.49 34.12 16.43 32.30 17.12 Z" />
<path fill="#ffffff" opacity="1.00" d=" M 43.00 42.97 C 43.61 40.96 44.19 38.95 44.95 37.00 C 53.71 37.34 62.48 36.75 71.23 37.37 C 75.22 37.73 80.16 38.75 81.72 43.00 C 82.91 49.04 77.72 54.01 72.12 54.97 C 74.24 56.13 76.74 57.02 77.89 59.33 C 79.21 61.17 78.23 63.54 78.20 65.60 C 75.37 72.57 67.45 75.32 60.46 75.42 C 51.73 75.55 43.00 75.61 34.27 75.39 C 34.91 73.28 35.46 71.15 36.14 69.05 C 37.78 69.16 39.41 69.33 41.05 69.50 C 43.85 60.79 45.88 51.85 48.34 43.05 C 46.56 43.08 44.78 43.03 43.00 42.97 M 60.18 42.94 C 59.29 46.20 58.30 49.43 57.55 52.73 C 60.99 53.00 64.58 52.76 67.64 51.01 C 69.70 49.52 70.28 46.72 69.56 44.36 C 66.74 42.70 63.34 42.76 60.18 42.94 M 55.67 58.59 C 55.13 62.31 53.80 65.86 52.96 69.52 C 56.97 69.56 61.09 69.48 64.81 67.77 C 65.99 65.83 67.24 63.70 66.78 61.33 C 64.46 57.71 59.40 57.98 55.67 58.59 Z" />
<path fill="#ffffff" opacity="1.00" d=" M 0.00 88.58 C 1.24 92.95 1.93 97.62 4.51 101.47 C 9.08 109.21 17.60 114.56 26.62 115.00 L 0.00 115.00 L 0.00 88.58 Z" />
<path fill="#ffffff" opacity="1.00" d=" M 89.43 115.00 C 102.76 114.31 114.22 102.66 115.00 89.41 L 115.00 115.00 L 89.43 115.00 Z" />
</g>
<g id="#ffc371ff">
<path fill="#ffc371" opacity="1.00" d=" M 26.69 0.00 L 58.03 0.00 C 58.09 3.92 57.94 7.83 57.56 11.73 C 49.69 12.40 41.78 11.65 33.91 12.14 C 23.65 13.09 15.61 22.88 15.48 32.97 C 15.45 41.07 15.52 49.16 15.46 57.25 C 10.39 58.43 5.16 57.97 0.00 57.98 L 0.00 26.74 C 0.75 22.46 1.74 18.14 4.11 14.42 C 8.43 6.01 17.72 1.53 26.69 0.00 Z" />
<path fill="#ffc371" opacity="1.00" d=" M 115.00 26.06 C 113.41 25.26 113.41 24.68 115.00 24.29 L 115.00 26.06 Z" />
</g>
<g id="#fcb132ff">
<path fill="#fcb132" opacity="1.00" d=" M 58.03 0.00 L 88.93 0.00 C 95.04 1.55 101.52 3.27 106.06 7.94 C 110.79 11.99 113.43 17.82 115.00 23.73 L 115.00 24.29 C 113.41 24.68 113.41 25.26 115.00 26.06 L 115.00 89.41 C 114.22 102.66 102.76 114.31 89.43 115.00 L 26.62 115.00 C 17.60 114.56 9.08 109.21 4.51 101.47 C 1.93 97.62 1.24 92.95 0.00 88.58 L 0.00 57.98 C 5.16 57.97 10.39 58.43 15.46 57.25 C 15.61 65.13 15.42 73.01 15.57 80.89 C 15.50 91.78 25.25 101.35 36.03 101.63 C 50.71 101.68 65.39 101.68 80.07 101.63 C 91.06 101.61 101.11 92.09 101.16 80.99 C 101.30 65.01 101.20 49.03 101.21 33.05 C 101.37 22.08 91.93 12.26 81.01 11.78 C 73.20 11.60 65.38 11.70 57.56 11.73 C 57.94 7.83 58.09 3.92 58.03 0.00 Z" />
</g>
<g id="#241f21ff">
<path fill="#241f21" opacity="1.00" d=" M 32.30 17.12 C 34.12 16.43 36.09 16.49 38.00 16.49 C 52.37 16.58 66.74 16.42 81.10 16.56 C 89.49 16.97 96.54 24.64 96.49 32.99 C 96.51 46.97 96.48 60.96 96.50 74.94 C 96.48 78.51 96.78 82.20 95.50 85.62 C 93.37 92.08 86.96 96.98 80.07 96.83 C 65.37 96.84 50.66 96.87 35.96 96.82 C 27.72 96.51 20.45 89.40 20.26 81.09 C 20.16 65.03 20.24 48.96 20.22 32.89 C 20.08 25.67 25.51 19.15 32.30 17.12 M 43.00 42.97 C 44.78 43.03 46.56 43.08 48.34 43.05 C 45.88 51.85 43.85 60.79 41.05 69.50 C 39.41 69.33 37.78 69.16 36.14 69.05 C 35.46 71.15 34.91 73.28 34.27 75.39 C 43.00 75.61 51.73 75.55 60.46 75.42 C 67.45 75.32 75.37 72.57 78.20 65.60 C 78.23 63.54 79.21 61.17 77.89 59.33 C 76.74 57.02 74.24 56.13 72.12 54.97 C 77.72 54.01 82.91 49.04 81.72 43.00 C 80.16 38.75 75.22 37.73 71.23 37.37 C 62.48 36.75 53.71 37.34 44.95 37.00 C 44.19 38.95 43.61 40.96 43.00 42.97 Z" />
<path fill="#241f21" opacity="1.00" d=" M 60.18 42.94 C 63.34 42.76 66.74 42.70 69.56 44.36 C 70.28 46.72 69.70 49.52 67.64 51.01 C 64.58 52.76 60.99 53.00 57.55 52.73 C 58.30 49.43 59.29 46.20 60.18 42.94 Z" />
<path fill="#241f21" opacity="1.00" d=" M 55.67 58.59 C 59.40 57.98 64.46 57.71 66.78 61.33 C 67.24 63.70 65.99 65.83 64.81 67.77 C 61.09 69.48 56.97 69.56 52.96 69.52 C 53.80 65.86 55.13 62.31 55.67 58.59 Z" />
</g>
</svg>
