<?xml version="1.0" encoding="UTF-8" ?>
<!DOCTYPE svg PUBLIC "-//W3C//DTD SVG 1.1//EN" "http://www.w3.org/Graphics/SVG/1.1/DTD/svg11.dtd">
<svg width="100pt" height="100pt" viewBox="0 0 100 100" version="1.1" xmlns="http://www.w3.org/2000/svg">
<g id="#fdfefeff">
<path fill="#fdfefe" opacity="1.00" d=" M 31.51 25.64 C 38.00 25.78 44.50 25.61 51.00 25.70 C 56.73 25.69 62.31 28.92 65.13 33.91 C 69.70 41.68 69.87 51.51 66.99 59.90 C 64.56 67.28 57.90 73.53 49.96 74.17 C 43.82 74.56 37.65 74.13 31.50 74.39 C 32.77 67.01 31.79 59.47 32.09 52.02 C 31.80 43.23 32.74 34.37 31.51 25.64 M 40.51 30.33 C 40.52 42.99 40.53 55.64 40.50 68.30 C 45.20 68.27 50.65 68.83 54.43 65.45 C 58.60 61.53 59.31 55.42 59.50 50.01 C 59.61 44.20 59.04 37.56 54.57 33.33 C 50.80 29.78 45.28 30.30 40.51 30.33 Z" />
</g>
<g id="#00167eff">
<path fill="#00167e" opacity="1.00" d=" M 6.91 0.00 L 93.22 0.00 C 96.65 0.81 99.34 3.49 100.00 6.98 L 100.00 93.31 C 99.10 96.66 96.50 99.29 93.08 100.00 L 6.73 100.00 C 3.37 99.14 0.74 96.56 0.00 93.14 L 0.00 6.65 C 0.90 3.31 3.48 0.69 6.91 0.00 M 31.51 25.64 C 32.74 34.37 31.80 43.23 32.09 52.02 C 31.79 59.47 32.77 67.01 31.50 74.39 C 37.65 74.13 43.82 74.56 49.96 74.17 C 57.90 73.53 64.56 67.28 66.99 59.90 C 69.87 51.51 69.70 41.68 65.13 33.91 C 62.31 28.92 56.73 25.69 51.00 25.70 C 44.50 25.61 38.00 25.78 31.51 25.64 Z" />
<path fill="#00167e" opacity="1.00" d=" M 40.51 30.33 C 45.28 30.30 50.80 29.78 54.57 33.33 C 59.04 37.56 59.61 44.20 59.50 50.01 C 59.31 55.42 58.60 61.53 54.43 65.45 C 50.65 68.83 45.20 68.27 40.50 68.30 C 40.53 55.64 40.52 42.99 40.51 30.33 Z" />
</g>
</svg>
