<?xml version="1.0" encoding="UTF-8" ?>
<!DOCTYPE svg PUBLIC "-//W3C//DTD SVG 1.1//EN" "http://www.w3.org/Graphics/SVG/1.1/DTD/svg11.dtd">
<svg width="192pt" height="192pt" viewBox="0 0 192 192" version="1.1" xmlns="http://www.w3.org/2000/svg">
<g id="#b80000ff">
<path fill="#b80000" opacity="1.00" d=" M 116.35 20.31 C 126.63 19.43 137.07 22.69 145.56 28.44 C 153.52 33.88 159.10 42.53 161.02 51.96 C 163.89 65.50 161.18 80.52 152.48 91.49 C 143.68 102.78 131.86 111.23 119.85 118.79 C 104.27 128.67 87.18 135.88 71.59 145.72 C 62.31 151.54 52.69 160.10 52.44 171.90 C 49.04 171.81 45.22 171.99 42.47 169.62 C 38.90 166.57 39.41 161.06 41.02 157.11 C 44.33 150.12 50.29 144.82 56.43 140.33 C 70.04 130.61 85.57 124.16 100.00 115.84 C 108.63 110.88 117.18 105.79 125.76 100.73 C 135.76 93.94 145.22 85.42 150.34 74.26 C 154.23 65.26 153.46 54.81 150.29 45.72 C 145.21 31.56 131.15 21.66 116.35 20.31 Z" />
<path fill="#b80000" opacity="1.00" d=" M 111.75 22.98 C 121.66 24.19 131.43 28.32 138.24 35.77 C 146.50 44.46 149.86 57.58 146.43 69.11 C 144.31 76.23 139.56 82.25 134.12 87.17 C 126.89 93.71 118.46 98.70 110.01 103.48 C 112.62 98.76 114.57 93.39 113.80 87.92 C 113.31 83.06 110.67 78.76 107.45 75.20 C 109.78 85.29 108.47 96.61 101.93 104.91 C 95.05 114.10 83.79 117.87 74.04 123.09 C 69.90 124.99 64.85 128.63 60.39 125.49 C 55.58 121.54 55.01 114.82 52.52 109.46 C 55.54 111.91 58.99 114.18 62.99 114.43 C 68.06 115.07 73.51 111.95 74.94 106.93 C 77.91 96.31 70.06 83.87 58.91 82.73 C 53.39 81.77 47.94 85.17 45.46 90.00 C 43.79 83.72 39.99 77.80 40.38 71.11 C 40.71 65.98 45.78 63.47 50.05 62.02 C 63.84 57.42 77.61 52.74 91.45 48.26 C 92.86 45.22 93.95 41.79 96.64 39.59 C 100.72 36.25 106.75 37.29 110.80 33.86 C 113.74 31.05 113.49 26.38 111.75 22.98 M 96.05 50.05 C 94.59 51.14 94.20 54.08 96.44 54.50 C 100.62 55.56 104.87 53.19 107.14 49.71 C 103.71 48.03 99.25 47.70 96.05 50.05 Z" />
<path fill="#b80000" opacity="1.00" d=" M 167.91 69.88 C 170.64 89.49 170.90 109.52 168.14 129.15 C 166.10 141.81 162.78 155.17 153.73 164.77 C 149.32 169.71 142.61 172.12 136.07 171.94 C 110.42 171.93 84.77 171.95 59.12 171.92 C 59.47 164.47 64.92 158.74 70.52 154.45 C 84.21 144.11 100.26 137.67 115.04 129.13 C 129.89 120.54 144.62 110.94 155.70 97.63 C 162.32 89.78 166.63 80.08 167.91 69.88 Z" />
<path fill="#b80000" opacity="1.00" d=" M 21.98 101.10 C 21.53 97.55 23.25 94.33 25.18 91.51 C 25.58 95.22 26.91 99.77 31.12 100.62 C 40.99 102.28 50.12 96.28 59.92 96.48 C 63.88 96.59 68.39 98.77 69.25 102.98 C 69.86 104.99 68.65 106.78 67.60 108.37 C 67.20 105.98 66.69 102.93 63.95 102.17 C 58.97 100.83 54.08 103.32 50.01 105.95 C 44.88 109.09 39.10 112.01 32.92 111.69 C 27.35 111.38 22.36 106.72 21.98 101.10 Z" />
</g>
</svg>
