<!DOCTYPE svg PUBLIC "-//W3C//DTD SVG 1.1//EN" "http://www.w3.org/Graphics/SVG/1.1/DTD/svg11.dtd">
<svg  transform="scale(90%) translate(-50% -50%)" viewBox="0 0 128 128" version="1.1" xmlns="http://www.w3.org/2000/svg">
<path fill="#ef343a" opacity="1.00" d=" M 10.64 0.00 L 117.09 0.00 C 118.21 0.49 119.32 1.01 120.42 1.55 C 106.63 3.43 92.56 5.10 79.70 10.74 C 78.19 11.63 76.79 12.69 75.55 13.91 C 72.71 13.89 69.87 14.03 67.03 14.03 C 67.03 14.70 67.02 16.04 67.01 16.71 C 51.95 23.75 39.31 35.03 28.42 47.43 C 19.04 58.79 11.53 71.72 6.58 85.61 C 3.74 93.06 2.24 100.91 0.00 108.54 L 0.00 10.76 C 1.80 5.77 5.72 1.91 10.64 0.00 Z" />
<path fill="#ed1c24" opacity="1.00" d=" M 79.70 10.74 C 92.56 5.10 106.63 3.43 120.42 1.55 C 124.03 3.50 126.40 6.96 128.00 10.63 L 128.00 117.26 C 126.19 122.24 122.29 126.10 117.37 128.00 L 10.73 128.00 C 5.77 126.19 1.92 122.30 0.00 117.40 L 0.00 108.54 C 2.24 100.91 3.74 93.06 6.58 85.61 C 11.53 71.72 19.04 58.79 28.42 47.43 C 39.31 35.03 51.95 23.75 67.01 16.71 C 67.03 37.14 67.07 57.57 67.00 78.00 C 66.78 83.58 66.89 89.44 64.55 94.64 C 62.47 99.10 57.55 101.42 52.85 101.81 C 47.21 102.25 41.54 101.91 35.90 102.01 C 35.87 106.00 35.87 109.99 35.90 113.99 C 46.87 113.70 58.81 115.71 68.71 109.72 C 77.35 104.84 81.28 94.56 81.14 85.02 C 81.24 61.34 81.15 37.67 81.18 14.00 C 79.30 13.99 77.42 13.97 75.55 13.91 C 76.79 12.69 78.19 11.63 79.70 10.74 Z" />
<path fill="#ffffff" opacity="1.00" d=" M 67.03 14.03 C 69.87 14.03 72.71 13.89 75.55 13.91 C 77.42 13.97 79.30 13.99 81.18 14.00 C 81.15 37.67 81.24 61.34 81.14 85.02 C 81.28 94.56 77.35 104.84 68.71 109.72 C 58.81 115.71 46.87 113.70 35.90 113.99 C 35.87 109.99 35.87 106.00 35.90 102.01 C 41.54 101.91 47.21 102.25 52.85 101.81 C 57.55 101.42 62.47 99.10 64.55 94.64 C 66.89 89.44 66.78 83.58 67.00 78.00 C 67.07 57.57 67.03 37.14 67.01 16.71 C 67.02 16.04 67.03 14.70 67.03 14.03 Z" />
</svg>
