<?xml version="1.0" encoding="UTF-8" ?>
<!DOCTYPE svg PUBLIC "-//W3C//DTD SVG 1.1//EN" "http://www.w3.org/Graphics/SVG/1.1/DTD/svg11.dtd">
<svg width="133pt" height="145pt" viewBox="0 0 133 145" version="1.1" xmlns="http://www.w3.org/2000/svg">
<g id="#ffffffff">
</g>
<g id="#000000ff">
<path fill="#000000" opacity="1.00" d=" M 51.17 14.38 C 61.64 10.62 73.57 11.39 83.52 16.33 C 95.50 22.05 104.34 33.77 106.48 46.88 C 108.45 56.81 105.85 66.93 102.23 76.16 C 93.97 95.63 80.32 112.03 68.64 129.46 C 67.80 130.71 66.69 132.06 65.02 132.03 C 63.07 132.09 61.97 130.34 61.00 128.94 C 49.41 111.69 35.94 95.42 27.75 76.15 C 23.68 65.92 21.16 54.50 24.20 43.65 C 27.49 30.16 38.04 18.81 51.17 14.38 M 29.90 57.06 C 30.97 68.77 36.71 79.31 42.47 89.32 C 49.37 100.70 57.38 111.35 65.01 122.24 C 72.85 110.97 81.19 100.01 88.19 88.18 C 94.35 77.39 100.40 65.74 100.27 52.99 C 99.81 39.60 91.03 26.98 78.71 21.79 C 72.55 18.94 65.59 18.88 58.96 19.54 C 41.62 22.20 28.05 39.57 29.90 57.06 Z" />
<path fill="#000000" opacity="1.00" d=" M 52.95 36.87 C 58.11 33.06 65.03 32.46 71.11 33.99 C 79.45 36.37 85.52 44.29 86.22 52.86 C 86.26 54.20 86.17 55.53 85.93 56.84 C 84.84 68.15 73.18 77.03 61.98 75.14 C 53.30 73.85 45.61 66.71 44.24 57.95 C 42.53 50.03 46.31 41.41 52.95 36.87 M 61.36 40.56 C 54.09 42.43 49.23 50.71 51.49 57.95 C 53.28 65.14 61.42 69.85 68.54 67.75 C 76.07 66.05 80.92 57.34 78.39 50.04 C 76.37 43.04 68.42 38.46 61.36 40.56 Z" />
</g>
</svg>
