<?xml version="1.0" encoding="UTF-8" ?>
<!DOCTYPE svg PUBLIC "-//W3C//DTD SVG 1.1//EN" "http://www.w3.org/Graphics/SVG/1.1/DTD/svg11.dtd">
<svg width="225pt" height="225pt" viewBox="0 0 225 225" version="1.1" xmlns="http://www.w3.org/2000/svg">
<g id="#0154a7ff">
<path fill="#0154a7" opacity="1.00" d=" M 0.00 0.00 L 225.00 0.00 L 225.00 225.00 L 0.00 225.00 L 0.00 0.00 M 41.74 43.18 C 42.77 44.48 43.83 45.75 44.91 47.00 C 50.40 43.44 55.65 39.47 61.56 36.59 C 74.08 30.43 87.99 26.84 102.00 27.24 C 122.78 26.79 143.48 34.39 159.45 47.60 C 173.58 59.47 184.19 75.80 188.24 93.89 C 193.30 114.75 190.07 137.57 179.03 156.01 C 170.27 171.50 156.26 183.66 140.37 191.42 C 120.43 200.72 97.05 202.40 75.99 196.02 C 71.75 194.76 67.71 192.86 63.39 191.86 C 66.35 195.22 70.67 196.77 74.72 198.39 C 93.11 205.56 113.95 205.93 132.69 199.85 C 157.42 192.19 178.07 173.07 188.45 149.45 C 197.42 129.29 198.40 105.70 191.28 84.83 C 185.82 68.17 175.24 53.27 161.46 42.47 C 144.02 28.40 121.38 20.79 98.96 21.90 C 78.22 22.22 57.69 29.95 41.74 43.18 M 85.34 33.46 C 85.29 34.88 85.23 36.29 85.19 37.71 C 92.48 37.75 99.69 36.00 107.00 36.60 C 114.89 37.32 122.79 38.74 130.18 41.69 C 150.10 48.86 166.71 64.68 174.79 84.25 C 181.03 98.56 182.19 114.86 178.87 130.06 C 174.43 149.90 161.59 167.61 144.26 178.19 C 131.81 185.58 117.51 190.11 102.98 190.28 C 82.85 190.48 62.64 182.88 47.94 169.06 C 45.00 165.97 41.95 162.99 39.02 159.89 C 41.51 166.50 46.69 171.54 51.78 176.22 C 65.13 187.54 82.34 194.63 99.94 194.68 C 119.09 195.59 138.36 189.20 153.51 177.54 C 166.93 167.41 177.05 153.00 181.97 136.93 C 188.22 117.40 186.23 95.45 176.87 77.24 C 168.62 61.25 155.16 47.97 138.89 40.23 C 122.34 32.45 103.32 29.60 85.34 33.46 M 119.30 44.16 C 119.35 45.25 119.40 46.33 119.45 47.41 C 124.83 49.25 130.36 50.82 135.34 53.64 C 150.14 61.37 161.89 74.71 167.61 90.40 C 171.92 101.60 172.79 113.98 170.59 125.74 C 167.39 143.73 156.28 160.05 140.91 169.89 C 130.33 177.04 117.67 180.78 104.98 181.55 C 87.43 182.07 69.64 176.26 56.29 164.74 C 46.15 156.55 39.54 144.96 34.96 132.94 C 35.62 143.27 40.97 152.72 47.41 160.57 C 60.21 176.07 79.98 185.23 100.02 185.56 C 116.93 186.18 133.94 180.64 147.37 170.38 C 162.68 159.13 172.82 141.37 175.39 122.61 C 176.62 111.18 175.63 99.41 171.38 88.66 C 164.94 70.84 150.86 56.15 133.71 48.29 C 129.14 46.25 124.46 43.88 119.30 44.16 M 142.19 65.27 C 142.49 68.78 145.73 70.72 147.83 73.16 C 159.13 84.97 164.90 101.79 163.59 118.04 C 162.53 134.20 153.94 149.34 141.65 159.66 C 131.65 167.99 118.87 172.55 105.98 173.64 C 91.12 174.53 75.95 169.93 64.13 160.86 C 52.30 151.83 43.74 138.38 41.38 123.62 C 39.96 117.10 40.61 110.42 40.46 103.81 C 37.14 114.88 37.87 126.96 42.26 137.64 C 48.12 153.46 61.43 165.78 76.84 172.19 C 88.53 177.25 101.63 177.69 114.10 176.06 C 128.75 173.30 142.71 165.78 152.17 154.12 C 163.55 140.71 169.59 122.35 166.63 104.84 C 164.86 90.16 157.25 76.47 146.35 66.59 C 145.28 65.42 143.63 65.48 142.19 65.27 M 51.71 111.99 C 51.00 126.76 57.77 141.50 69.16 150.85 C 78.23 158.52 90.08 162.97 102.00 162.59 C 117.52 163.16 132.73 155.39 142.29 143.33 C 148.39 135.08 152.71 124.99 152.29 114.58 C 149.75 115.85 150.00 118.93 149.44 121.30 C 146.94 137.89 134.39 152.28 118.56 157.62 C 110.25 160.86 101.05 161.05 92.34 159.58 C 79.10 156.94 66.94 148.49 60.25 136.71 C 51.21 121.73 51.98 101.40 62.11 87.14 C 67.56 78.85 76.02 73.13 84.85 68.96 C 65.54 73.27 51.63 92.50 51.71 111.99 M 45.39 106.39 C 43.31 116.99 45.65 128.06 50.22 137.71 C 58.34 154.19 74.87 166.35 93.13 168.82 C 118.97 173.34 147.03 157.77 155.92 132.88 C 160.98 119.61 160.97 104.20 154.73 91.32 C 154.08 91.29 152.77 91.21 152.11 91.18 C 153.80 97.74 156.60 104.11 156.51 111.01 C 157.79 131.66 145.33 152.01 126.75 160.86 C 115.62 166.41 102.68 167.83 90.52 165.48 C 76.26 162.54 63.48 153.56 55.58 141.37 C 48.19 129.53 45.74 114.64 49.04 101.08 C 50.42 94.97 53.61 89.55 55.98 83.82 C 50.04 89.90 46.78 98.11 45.39 106.39 Z" />
</g>
<g id="#9abf5cff">
<path fill="#9abf5c" opacity="1.00" d=" M 41.74 43.18 C 57.69 29.95 78.22 22.22 98.96 21.90 C 121.38 20.79 144.02 28.40 161.46 42.47 C 175.24 53.27 185.82 68.17 191.28 84.83 C 198.40 105.70 197.42 129.29 188.45 149.45 C 178.07 173.07 157.42 192.19 132.69 199.85 C 113.95 205.93 93.11 205.56 74.72 198.39 C 70.67 196.77 66.35 195.22 63.39 191.86 C 67.71 192.86 71.75 194.76 75.99 196.02 C 97.05 202.40 120.43 200.72 140.37 191.42 C 156.26 183.66 170.27 171.50 179.03 156.01 C 190.07 137.57 193.30 114.75 188.24 93.89 C 184.19 75.80 173.58 59.47 159.45 47.60 C 143.48 34.39 122.78 26.79 102.00 27.24 C 87.99 26.84 74.08 30.43 61.56 36.59 C 55.65 39.47 50.40 43.44 44.91 47.00 C 43.83 45.75 42.77 44.48 41.74 43.18 Z" />
<path fill="#9abf5c" opacity="1.00" d=" M 85.34 33.46 C 103.32 29.60 122.34 32.45 138.89 40.23 C 155.16 47.97 168.62 61.25 176.87 77.24 C 186.23 95.45 188.22 117.40 181.97 136.93 C 177.05 153.00 166.93 167.41 153.51 177.54 C 138.36 189.20 119.09 195.59 99.94 194.68 C 82.34 194.63 65.13 187.54 51.78 176.22 C 46.69 171.54 41.51 166.50 39.02 159.89 C 41.95 162.99 45.00 165.97 47.94 169.06 C 62.64 182.88 82.85 190.48 102.98 190.28 C 117.51 190.11 131.81 185.58 144.26 178.19 C 161.59 167.61 174.43 149.90 178.87 130.06 C 182.19 114.86 181.03 98.56 174.79 84.25 C 166.71 64.68 150.10 48.86 130.18 41.69 C 122.79 38.74 114.89 37.32 107.00 36.60 C 99.69 36.00 92.48 37.75 85.19 37.71 C 85.23 36.29 85.29 34.88 85.34 33.46 Z" />
<path fill="#9abf5c" opacity="1.00" d=" M 119.30 44.16 C 124.46 43.88 129.14 46.25 133.71 48.29 C 150.86 56.15 164.94 70.84 171.38 88.66 C 175.63 99.41 176.62 111.18 175.39 122.61 C 172.82 141.37 162.68 159.13 147.37 170.38 C 133.94 180.64 116.93 186.18 100.02 185.56 C 79.98 185.23 60.21 176.07 47.41 160.57 C 40.97 152.72 35.62 143.27 34.96 132.94 C 39.54 144.96 46.15 156.55 56.29 164.74 C 69.64 176.26 87.43 182.07 104.98 181.55 C 117.67 180.78 130.33 177.04 140.91 169.89 C 156.28 160.05 167.39 143.73 170.59 125.74 C 172.79 113.98 171.92 101.60 167.61 90.40 C 161.89 74.71 150.14 61.37 135.34 53.64 C 130.36 50.82 124.83 49.25 119.45 47.41 C 119.40 46.33 119.35 45.25 119.30 44.16 Z" />
<path fill="#9abf5c" opacity="1.00" d=" M 142.19 65.27 C 143.63 65.48 145.28 65.42 146.35 66.59 C 157.25 76.47 164.86 90.16 166.63 104.84 C 169.59 122.35 163.55 140.71 152.17 154.12 C 142.71 165.78 128.75 173.30 114.10 176.06 C 101.63 177.69 88.53 177.25 76.84 172.19 C 61.43 165.78 48.12 153.46 42.26 137.64 C 37.87 126.96 37.14 114.88 40.46 103.81 C 40.61 110.42 39.96 117.10 41.38 123.62 C 43.74 138.38 52.30 151.83 64.13 160.86 C 75.95 169.93 91.12 174.53 105.98 173.64 C 118.87 172.55 131.65 167.99 141.65 159.66 C 153.94 149.34 162.53 134.20 163.59 118.04 C 164.90 101.79 159.13 84.97 147.83 73.16 C 145.73 70.72 142.49 68.78 142.19 65.27 Z" />
<path fill="#9abf5c" opacity="1.00" d=" M 51.71 111.99 C 51.63 92.50 65.54 73.27 84.85 68.96 C 76.02 73.13 67.56 78.85 62.11 87.14 C 51.98 101.40 51.21 121.73 60.25 136.71 C 66.94 148.49 79.10 156.94 92.34 159.58 C 101.05 161.05 110.25 160.86 118.56 157.62 C 134.39 152.28 146.94 137.89 149.44 121.30 C 150.00 118.93 149.75 115.85 152.29 114.58 C 152.71 124.99 148.39 135.08 142.29 143.33 C 132.73 155.39 117.52 163.16 102.00 162.59 C 90.08 162.97 78.23 158.52 69.16 150.85 C 57.77 141.50 51.00 126.76 51.71 111.99 Z" />
<path fill="#9abf5c" opacity="1.00" d=" M 45.39 106.39 C 46.78 98.11 50.04 89.90 55.98 83.82 C 53.61 89.55 50.42 94.97 49.04 101.08 C 45.74 114.64 48.19 129.53 55.58 141.37 C 63.48 153.56 76.26 162.54 90.52 165.48 C 102.68 167.83 115.62 166.41 126.75 160.86 C 145.33 152.01 157.79 131.66 156.51 111.01 C 156.60 104.11 153.80 97.74 152.11 91.18 C 152.77 91.21 154.08 91.29 154.73 91.32 C 160.97 104.20 160.98 119.61 155.92 132.88 C 147.03 157.77 118.97 173.34 93.13 168.82 C 74.87 166.35 58.34 154.19 50.22 137.71 C 45.65 128.06 43.31 116.99 45.39 106.39 Z" />
</g>
</svg>
