<?xml version="1.0" encoding="UTF-8" ?>
<!DOCTYPE svg PUBLIC "-//W3C//DTD SVG 1.1//EN" "http://www.w3.org/Graphics/SVG/1.1/DTD/svg11.dtd">
<svg width="149pt" height="128pt" viewBox="0 0 149 128" version="1.1" xmlns="http://www.w3.org/2000/svg">
<g id="#ffffffff">
</g>
<g id="#000000ff">
<path fill="#000000" opacity="1.00" d=" M 34.01 11.96 C 36.76 8.83 40.84 6.10 45.20 7.23 C 50.34 8.61 53.28 13.54 57.09 16.87 C 60.77 21.07 66.93 24.65 66.36 31.04 C 65.27 37.15 59.44 40.69 55.49 44.95 C 58.86 52.24 64.27 58.35 70.01 63.88 C 74.51 68.02 79.40 71.84 84.97 74.44 C 89.09 70.73 92.36 65.35 97.99 63.84 C 103.03 62.67 106.90 66.70 109.99 70.03 C 113.58 73.77 117.50 77.22 120.87 81.16 C 124.19 85.36 122.88 91.62 118.97 94.97 C 114.10 99.30 110.24 105.78 103.22 106.70 C 91.89 107.99 81.16 102.67 71.54 97.29 C 51.56 85.52 35.17 67.23 26.51 45.65 C 24.02 39.05 22.07 31.68 23.96 24.67 C 25.45 19.21 30.40 15.96 34.01 11.96 M 41.40 12.44 C 39.43 13.27 38.12 15.15 36.56 16.56 C 33.72 19.65 29.93 22.25 28.69 26.47 C 28.07 29.72 28.25 33.12 28.91 36.35 C 31.69 47.44 37.39 57.59 44.36 66.58 C 53.80 78.88 65.92 89.19 79.86 96.05 C 86.70 99.43 94.16 102.46 101.94 101.74 C 105.29 101.68 107.85 99.26 109.96 96.93 C 112.13 94.48 114.75 92.43 116.74 89.82 C 118.16 88.03 117.95 85.19 116.30 83.62 C 112.05 79.17 107.63 74.90 103.29 70.55 C 101.81 69.00 99.49 68.13 97.58 69.48 C 93.69 72.24 90.88 76.28 87.15 79.25 C 86.05 79.92 84.57 79.93 83.39 79.44 C 76.27 76.07 69.96 71.17 64.46 65.57 C 58.91 60.00 53.79 53.79 50.62 46.53 C 50.11 45.16 49.98 43.32 51.09 42.20 C 54.14 38.94 57.70 36.14 60.45 32.60 C 62.24 30.48 60.80 27.63 59.03 26.03 C 54.81 21.87 50.69 17.59 46.41 13.48 C 45.19 12.06 43.09 12.01 41.40 12.44 Z" />
</g>
</svg>
