<?xml version="1.0" encoding="UTF-8" ?>
<!DOCTYPE svg PUBLIC "-//W3C//DTD SVG 1.1//EN" "http://www.w3.org/Graphics/SVG/1.1/DTD/svg11.dtd">
<svg width="32pt" height="32pt" viewBox="0 0 32 32" version="1.1" xmlns="http://www.w3.org/2000/svg">
<g id="#ffffffff">
</g>
<g id="#0071baff">
<path fill="#0071ba" opacity="1.00" d=" M 9.27 21.63 C 9.28 16.25 9.28 10.87 9.27 5.49 C 13.29 5.72 17.72 4.67 21.43 6.60 C 25.00 8.98 23.80 14.26 20.49 16.30 C 21.74 18.08 22.95 19.89 24.15 21.71 C 22.39 21.49 20.62 21.50 18.86 21.61 C 17.51 19.61 16.55 16.77 13.79 16.43 C 13.77 18.16 13.76 19.90 13.76 21.63 C 12.26 21.61 10.77 21.60 9.27 21.63 M 13.76 9.25 C 13.77 10.28 13.77 12.34 13.77 13.37 C 15.63 12.90 19.06 13.96 19.17 11.10 C 18.60 8.64 15.58 9.65 13.76 9.25 Z" />
</g>
<g id="#d22030ff">
<path fill="#d22030" opacity="1.00" d=" M 9.28 24.60 C 14.22 24.61 19.16 24.58 24.11 24.62 C 19.17 25.49 14.22 26.30 9.28 27.16 C 9.28 26.52 9.28 25.24 9.28 24.60 Z" />
</g>
</svg>
