<?xml version="1.0" encoding="UTF-8" ?>
<!DOCTYPE svg PUBLIC "-//W3C//DTD SVG 1.1//EN" "http://www.w3.org/Graphics/SVG/1.1/DTD/svg11.dtd">
<svg width="70pt" height="69pt" viewBox="0 0 70 69" version="1.1" xmlns="http://www.w3.org/2000/svg">
<g id="#f2faf0ff">
</g>
<g id="#51b157ff">
<path fill="#51b157" opacity="1.00" d=" M 15.27 2.09 C 23.92 3.48 32.68 6.24 40.99 9.17 C 36.55 19.79 23.54 26.30 17.01 36.09 C 16.15 39.58 21.82 44.62 24.28 40.27 C 32.17 33.60 38.00 24.04 47.07 19.01 C 53.19 21.54 56.88 28.71 62.60 32.54 C 62.34 42.96 57.69 52.73 55.88 62.93 C 55.16 64.56 54.56 67.83 52.11 66.78 C 43.14 64.46 33.68 62.84 25.13 59.74 C 31.79 48.97 44.66 40.94 53.01 30.90 C 52.26 27.35 48.38 23.12 45.02 27.01 C 37.20 34.31 30.48 43.47 21.92 50.01 C 16.04 47.26 11.46 40.79 6.99 35.89 C 9.25 24.55 12.55 13.36 15.27 2.09 Z" />
<path fill="#51b157" opacity="1.00" d=" M 56.87 13.02 C 60.36 14.23 65.06 13.43 67.87 16.19 C 67.23 18.51 67.63 21.97 65.06 23.10 C 61.73 20.31 58.73 16.98 56.87 13.02 Z" />
<path fill="#51b157" opacity="1.00" d=" M 4.26 45.98 C 8.46 48.55 13.45 52.27 15.09 57.04 C 10.63 56.46 6.38 54.85 2.03 53.81 C 2.08 51.06 3.30 48.51 4.26 45.98 Z" />
</g>
</svg>
