<?xml version="1.0" encoding="UTF-8" ?>
<!DOCTYPE svg PUBLIC "-//W3C//DTD SVG 1.1//EN" "http://www.w3.org/Graphics/SVG/1.1/DTD/svg11.dtd">
<svg width="126pt" height="114pt" viewBox="0 0 126 114" version="1.1" xmlns="http://www.w3.org/2000/svg">
<g id="#ffffffff">
<path fill="#ffffff" opacity="1.00" d=" M 71.68 61.01 C 76.74 53.52 85.39 49.10 94.09 47.44 C 90.58 48.85 87.22 50.86 84.77 53.80 C 80.38 59.21 77.57 65.72 72.96 70.96 C 68.70 76.14 62.95 79.75 57.13 82.92 C 64.56 77.50 66.54 68.15 71.68 61.01 Z" />
</g>
<g id="#005480ff">
<path fill="#005480" opacity="1.00" d=" M 0.00 7.76 C 0.16 8.15 0.47 8.92 0.62 9.31 C 29.79 17.79 59.66 24.47 90.06 26.13 C 83.52 28.45 76.76 30.29 70.63 33.64 C 60.83 38.61 52.55 46.38 46.75 55.69 C 39.98 65.95 36.34 78.02 28.77 87.77 C 27.08 89.61 25.56 92.19 22.85 92.53 C 15.22 93.86 7.57 95.08 0.00 96.69 L 0.00 7.76 Z" />
<path fill="#005480" opacity="1.00" d=" M 8.47 102.91 C 42.70 94.61 78.02 91.81 113.16 91.21 C 113.18 92.27 113.23 94.38 113.26 95.43 C 93.41 95.93 73.57 97.16 53.83 99.36 C 38.56 101.28 23.24 103.34 8.41 107.54 C 8.43 105.99 8.45 104.45 8.47 102.91 Z" />
<path fill="#005480" opacity="1.00" d=" M 19.28 109.61 C 53.52 101.20 88.89 98.45 124.06 97.89 C 124.06 99.32 124.06 100.76 124.07 102.19 C 93.54 102.82 62.91 105.06 32.90 110.91 C 28.40 111.76 23.96 113.31 19.32 113.01 C 19.31 112.16 19.29 110.46 19.28 109.61 Z" />
</g>
<g id="#231f20ff">
<path fill="#231f20" opacity="1.00" d=" M 84.03 30.33 C 87.65 28.28 91.59 25.74 95.94 26.70 C 95.73 46.75 95.84 66.80 95.89 86.85 C 73.06 87.16 50.17 88.29 27.60 91.90 C 35.91 87.08 43.72 81.29 50.08 74.04 C 52.99 70.92 55.19 67.23 57.96 63.99 C 54.73 71.42 51.03 79.13 44.19 83.90 C 53.20 79.55 61.53 73.35 67.13 64.96 C 71.16 59.32 74.19 52.99 78.77 47.74 C 81.75 44.33 85.84 42.12 90.02 40.51 C 80.00 42.51 69.76 47.01 63.68 55.58 C 63.42 55.48 62.89 55.28 62.63 55.18 C 64.62 55.03 64.66 52.82 65.61 51.57 C 70.70 43.70 75.91 35.42 84.03 30.33 M 71.68 61.01 C 66.54 68.15 64.56 77.50 57.13 82.92 C 62.95 79.75 68.70 76.14 72.96 70.96 C 77.57 65.72 80.38 59.21 84.77 53.80 C 87.22 50.86 90.58 48.85 94.09 47.44 C 85.39 49.10 76.74 53.52 71.68 61.01 Z" />
</g>
</svg>
