<?xml version="1.0" encoding="UTF-8" ?>
<!DOCTYPE svg PUBLIC "-//W3C//DTD SVG 1.1//EN" "http://www.w3.org/Graphics/SVG/1.1/DTD/svg11.dtd">
<svg width="203pt" height="203pt" viewBox="0 0 203 203" version="1.1" xmlns="http://www.w3.org/2000/svg">
<g id="#ffffffff">
<path fill="#ffffff" opacity="1.00" d=" M 42.12 24.47 C 46.06 22.67 50.35 21.91 54.35 20.29 L 54.47 20.71 C 55.43 24.25 56.49 27.76 57.68 31.22 C 55.86 28.53 55.06 25.34 54.32 22.22 C 50.91 22.33 47.28 22.42 44.31 24.35 C 43.20 28.60 45.94 32.51 45.77 36.68 C 42.49 38.11 39.28 39.69 37.47 42.99 C 32.62 43.11 30.95 36.67 25.87 36.99 C 24.00 39.72 22.00 42.37 20.02 45.02 C 22.38 48.13 25.94 49.76 29.02 51.96 C 28.51 56.40 25.87 60.25 25.15 64.66 C 21.49 64.62 17.83 64.78 14.18 65.06 C 13.72 68.67 13.71 72.32 14.14 75.93 C 17.49 76.28 20.84 76.51 24.19 76.76 C 20.55 76.79 16.91 76.85 13.27 76.68 C 13.36 72.53 13.34 68.38 13.19 64.23 C 17.09 64.34 20.99 64.42 24.89 64.28 L 25.05 63.71 C 25.81 60.48 26.65 57.22 28.46 54.40 C 26.97 50.22 22.35 48.58 19.34 45.69 C 21.36 42.02 24.19 38.89 26.50 35.41 C 29.11 37.22 31.69 39.07 34.13 41.08 L 34.73 41.46 C 37.42 42.70 39.23 39.42 41.26 38.26 L 41.66 38.01 C 43.51 37.47 45.31 35.98 45.17 33.89 L 44.84 33.54 C 44.12 30.46 43.15 27.45 42.12 24.47 Z" />
<path fill="#ffffff" opacity="1.00" d=" M 37.02 75.12 C 36.32 71.73 36.03 68.19 37.04 64.83 C 36.53 68.24 36.49 71.71 37.02 75.12 Z" />
<path fill="#ffffff" opacity="1.00" d=" M 19.87 96.26 C 18.73 95.35 18.84 94.62 20.18 94.09 C 20.10 94.63 19.95 95.72 19.87 96.26 Z" />
<path fill="#ffffff" opacity="1.00" d=" M 58.80 96.95 C 61.56 97.34 64.35 97.41 67.13 97.16 C 64.37 97.71 61.52 97.70 58.80 96.95 Z" />
<path fill="#ffffff" opacity="1.00" d=" M 119.51 168.44 C 120.90 166.41 122.07 164.14 124.16 162.72 C 121.94 165.84 119.84 169.06 117.30 171.94 C 116.17 171.10 115.04 170.26 113.90 169.45 C 115.77 169.55 118.52 170.72 119.51 168.44 Z" />
</g>
<g id="#10059fff">
<path fill="#10059f" opacity="1.00" d=" M 15.47 5.07 C 71.31 4.88 127.15 5.09 182.99 4.97 C 184.50 5.09 186.30 4.61 187.50 5.86 C 188.01 5.92 189.04 6.05 189.56 6.11 C 193.06 7.88 195.83 10.92 197.36 14.53 C 197.88 15.60 198.10 16.74 198.02 17.94 C 197.99 73.96 197.97 129.99 198.03 186.02 C 197.90 187.52 198.41 189.33 197.12 190.50 C 197.08 191.03 196.99 192.08 196.95 192.60 C 194.84 194.58 193.00 196.90 190.49 198.40 C 189.98 198.64 188.96 199.14 188.45 199.39 C 187.36 199.90 186.21 200.11 185.00 200.02 C 130.67 199.97 76.34 200.01 22.01 200.01 C 19.53 199.88 16.90 200.46 14.55 199.42 C 14.04 199.15 13.02 198.62 12.51 198.35 C 9.96 196.92 8.16 194.56 6.05 192.60 C 6.01 192.07 5.93 191.02 5.88 190.50 C 4.58 189.33 5.11 187.49 4.97 185.98 C 5.03 131.34 4.99 76.71 4.99 22.07 C 5.12 19.56 4.53 16.90 5.62 14.53 C 7.11 11.31 9.35 8.27 12.61 6.67 C 13.59 6.19 14.55 5.66 15.47 5.07 M 41.91 22.89 C 39.79 23.70 41.01 25.84 41.25 27.43 C 41.93 29.74 42.10 32.69 44.84 33.54 L 45.17 33.89 C 43.56 34.39 41.15 36.11 41.66 38.01 L 41.26 38.26 C 39.18 36.78 37.59 38.97 35.93 39.82 C 33.06 38.17 30.66 35.70 27.59 34.43 C 25.27 33.70 23.84 35.95 22.74 37.57 C 21.13 40.11 18.92 42.25 17.62 44.97 C 18.09 49.39 23.96 49.64 25.58 53.23 C 25.74 56.50 24.22 59.56 23.13 62.57 C 19.98 62.65 16.58 61.24 13.58 62.47 L 13.10 63.83 L 12.74 63.83 L 12.74 64.03 C 10.70 64.19 10.99 66.61 10.64 68.03 C 10.42 71.20 10.92 74.40 11.68 77.48 C 14.28 81.40 18.93 77.68 22.58 78.21 C 23.68 81.58 28.66 86.43 23.96 88.99 C 21.44 91.04 16.15 92.74 18.05 96.92 C 20.15 100.08 22.36 103.37 25.36 105.72 C 29.72 107.01 32.10 101.77 36.11 101.22 C 37.98 101.49 39.56 102.89 41.53 102.73 C 42.65 103.47 43.83 104.11 44.97 104.84 C 44.23 108.97 42.33 112.81 41.96 117.02 C 46.14 118.25 50.23 119.77 54.49 120.69 C 54.61 120.33 54.84 119.59 54.95 119.23 C 56.94 117.15 57.82 114.41 58.92 111.82 C 61.88 110.32 65.42 111.60 68.63 111.53 C 69.99 114.30 69.64 117.81 71.75 120.19 C 76.22 122.78 80.90 119.01 85.35 118.16 C 85.98 116.16 86.89 113.97 85.90 111.91 C 85.41 109.82 83.41 107.68 84.53 105.50 C 87.18 103.17 90.45 101.69 93.73 100.47 C 95.99 102.18 98.22 103.95 100.51 105.64 L 100.20 105.99 C 98.68 105.53 97.10 105.30 95.54 104.99 C 95.13 105.19 94.30 105.58 93.88 105.78 C 92.30 109.91 90.15 114.20 91.39 118.73 C 94.64 120.01 98.33 120.63 101.05 122.94 C 102.00 125.12 101.94 127.80 101.18 130.03 C 99.59 134.15 93.18 132.24 91.83 136.47 L 91.24 136.69 L 90.92 136.01 C 90.57 136.58 89.87 137.71 89.51 138.27 C 91.85 141.47 92.65 145.35 93.94 149.00 C 97.85 153.47 102.98 145.37 107.23 148.89 C 109.38 151.15 112.53 154.92 109.83 157.91 C 108.89 159.72 105.51 161.38 107.51 163.61 C 107.36 163.92 107.05 164.55 106.90 164.86 C 107.08 168.41 111.17 168.42 113.16 170.57 C 114.55 171.64 115.93 173.91 117.99 172.96 C 121.49 171.67 122.12 167.09 125.28 165.37 C 127.91 165.15 130.59 166.02 132.91 167.21 C 135.44 170.96 132.47 175.90 135.12 179.56 C 139.35 179.41 143.60 179.74 147.84 179.46 C 149.23 179.55 150.08 178.23 150.41 177.05 C 150.51 173.89 150.25 170.74 150.35 167.59 C 151.74 166.77 154.03 166.63 154.33 164.68 L 154.46 164.64 C 156.22 165.07 158.04 165.24 159.85 165.25 C 162.03 167.44 163.01 171.48 166.46 171.89 C 167.96 171.69 169.07 170.59 170.26 169.77 L 170.69 169.00 C 173.31 167.88 175.45 165.95 177.62 164.15 C 175.67 160.73 171.85 158.02 171.25 154.07 C 173.28 151.50 175.20 148.85 177.12 146.20 C 181.07 146.39 184.75 148.07 188.43 149.39 C 190.40 145.29 191.73 140.91 192.84 136.51 C 192.53 136.41 191.93 136.20 191.62 136.09 C 190.36 132.90 186.31 133.17 183.55 132.21 C 183.33 129.07 182.91 125.85 183.69 122.76 C 186.31 119.99 191.92 121.18 193.43 117.15 C 193.34 113.29 192.18 109.53 191.08 105.86 C 190.60 104.92 190.46 102.97 188.97 103.25 C 184.98 102.51 182.35 106.54 178.55 106.59 C 176.31 104.77 174.83 102.23 173.19 99.90 C 174.53 97.38 176.24 95.09 177.82 92.71 C 178.94 91.27 179.03 88.76 177.30 87.72 C 173.73 85.23 170.18 80.98 165.32 82.31 C 163.14 84.62 162.24 88.49 159.05 89.61 C 155.96 88.94 152.83 87.68 150.40 85.64 C 149.59 82.59 151.49 78.81 149.34 76.27 L 148.66 76.32 L 148.05 76.05 C 147.81 75.65 147.33 74.84 147.09 74.44 C 143.39 75.25 138.94 73.52 135.76 75.91 L 135.44 75.90 C 132.76 75.46 133.96 78.48 133.84 79.87 C 134.53 83.22 131.78 85.84 131.04 88.92 C 130.69 89.06 130.01 89.35 129.67 89.49 C 124.08 90.16 121.72 84.70 118.62 81.23 C 114.29 81.61 109.56 84.55 108.20 88.78 C 107.88 89.03 107.24 89.52 106.92 89.77 L 106.77 89.56 C 104.98 91.61 102.92 88.75 101.50 87.65 C 100.91 84.33 102.89 81.01 104.76 78.37 C 108.34 80.16 113.73 79.50 116.00 76.03 C 115.71 72.31 115.54 68.57 116.34 64.89 C 114.98 63.85 113.87 62.21 112.10 61.90 C 109.32 61.90 106.48 62.44 103.76 61.59 C 103.08 60.16 102.87 58.14 100.99 57.81 C 100.75 56.48 99.94 55.37 99.21 54.28 C 99.23 54.02 99.28 53.51 99.30 53.25 C 102.70 51.19 105.95 48.86 108.96 46.25 C 106.50 42.85 103.99 39.49 101.59 36.05 L 102.62 35.59 C 98.05 33.88 95.60 38.75 91.94 40.16 C 89.04 38.56 85.54 36.94 83.76 34.12 C 85.91 31.01 87.07 26.86 85.93 23.21 C 85.04 23.12 83.26 22.95 82.36 22.87 L 81.70 22.58 L 82.99 22.31 C 79.91 20.19 76.08 18.90 72.32 19.38 C 69.66 22.15 70.10 26.56 67.89 29.68 C 65.05 29.66 62.21 29.66 59.37 29.68 C 57.50 26.83 57.76 22.40 54.47 20.71 L 54.35 20.29 L 54.84 19.29 L 53.96 18.63 C 49.83 19.65 45.63 20.80 41.91 22.89 Z" />
<path fill="#10059f" opacity="1.00" d=" M 60.43 44.58 C 63.69 43.83 66.96 44.93 70.02 45.97 C 73.52 47.27 77.25 48.36 80.10 50.90 C 85.91 55.85 88.93 63.45 89.25 70.98 C 88.40 79.73 84.07 88.67 75.88 92.66 C 71.77 94.23 67.56 96.04 63.07 95.81 C 54.41 95.57 46.39 90.55 41.51 83.54 C 37.89 77.18 37.67 69.32 39.44 62.34 C 42.42 53.00 51.11 46.64 60.43 44.58 Z" />
<path fill="#10059f" opacity="1.00" d=" M 134.29 101.27 L 134.48 101.22 C 139.80 101.79 145.19 102.38 150.51 101.43 L 150.75 101.50 C 152.95 104.69 156.97 105.67 159.63 108.37 C 166.73 114.48 169.53 124.93 166.82 133.83 C 164.51 142.31 157.48 149.39 149.04 151.78 C 145.70 151.84 142.37 151.95 139.05 152.28 C 135.75 152.05 132.69 150.54 129.70 149.23 C 126.56 147.92 124.70 144.37 121.10 144.05 L 120.73 143.13 C 120.29 138.88 117.55 135.29 117.04 131.04 C 115.42 122.18 119.32 112.89 126.05 107.10 C 128.59 104.83 132.36 104.24 134.29 101.27 Z" />
</g>
<g id="#191662ff">
<path fill="#191662" opacity="1.00" d=" M 41.91 22.89 C 45.63 20.80 49.83 19.65 53.96 18.63 L 54.84 19.29 L 54.35 20.29 C 50.35 21.91 46.06 22.67 42.12 24.47 C 43.15 27.45 44.12 30.46 44.84 33.54 C 42.10 32.69 41.93 29.74 41.25 27.43 C 41.01 25.84 39.79 23.70 41.91 22.89 Z" />
<path fill="#191662" opacity="1.00" d=" M 72.32 19.38 C 76.08 18.90 79.91 20.19 82.99 22.31 L 81.70 22.58 C 78.75 21.80 75.81 21.02 72.85 20.27 C 71.66 23.93 70.48 27.59 69.52 31.31 C 69.45 31.40 69.30 31.58 69.23 31.67 C 65.46 31.26 61.66 31.31 57.88 31.56 L 57.68 31.22 C 56.49 27.76 55.43 24.25 54.47 20.71 C 57.76 22.40 57.50 26.83 59.37 29.68 C 62.21 29.66 65.05 29.66 67.89 29.68 C 70.10 26.56 69.66 22.15 72.32 19.38 Z" />
<path fill="#191662" opacity="1.00" d=" M 82.36 22.87 C 83.26 22.95 85.04 23.12 85.93 23.21 C 87.07 26.86 85.91 31.01 83.76 34.12 C 85.54 36.94 89.04 38.56 91.94 40.16 C 95.60 38.75 98.05 33.88 102.62 35.59 L 101.59 36.05 C 97.86 37.48 94.88 40.19 91.73 42.55 C 88.75 39.90 85.49 37.57 82.01 35.62 C 83.08 31.87 84.25 28.14 85.61 24.48 C 84.53 23.93 83.45 23.40 82.36 22.87 Z" />
<path fill="#191662" opacity="1.00" d=" M 48.20 48.22 C 55.59 42.85 65.80 42.04 74.18 45.47 C 84.02 49.72 91.19 60.17 90.61 71.02 C 90.60 78.13 87.26 84.89 82.36 89.91 C 81.92 90.37 81.44 90.81 80.94 91.21 C 76.94 94.35 72.13 96.30 67.13 97.16 C 64.35 97.41 61.56 97.34 58.80 96.95 C 55.96 96.27 53.21 95.26 50.49 94.22 C 50.46 94.21 50.41 94.19 50.39 94.18 C 43.66 89.87 38.36 83.12 37.02 75.12 C 36.49 71.71 36.53 68.24 37.04 64.83 C 38.68 58.21 42.47 52.06 48.20 48.22 M 60.43 44.58 C 51.11 46.64 42.42 53.00 39.44 62.34 C 37.67 69.32 37.89 77.18 41.51 83.54 C 46.39 90.55 54.41 95.57 63.07 95.81 C 67.56 96.04 71.77 94.23 75.88 92.66 C 84.07 88.67 88.40 79.73 89.25 70.98 C 88.93 63.45 85.91 55.85 80.10 50.90 C 77.25 48.36 73.52 47.27 70.02 45.97 C 66.96 44.93 63.69 43.83 60.43 44.58 Z" />
<path fill="#191662" opacity="1.00" d=" M 100.99 57.81 C 102.87 58.14 103.08 60.16 103.76 61.59 C 106.48 62.44 109.32 61.90 112.10 61.90 C 113.87 62.21 114.98 63.85 116.34 64.89 C 115.54 68.57 115.71 72.31 116.00 76.03 C 113.73 79.50 108.34 80.16 104.76 78.37 C 102.89 81.01 100.91 84.33 101.50 87.65 C 102.92 88.75 104.98 91.61 106.77 89.56 L 106.92 89.77 C 108.29 91.76 109.71 93.73 111.25 95.60 C 110.83 95.64 110.00 95.72 109.58 95.76 C 108.52 96.54 107.48 97.34 106.53 98.24 C 107.21 97.15 107.88 96.04 108.53 94.92 C 105.37 92.56 102.18 90.22 98.97 87.93 C 100.44 84.45 101.57 80.84 102.41 77.17 C 106.38 77.16 110.35 77.11 114.32 76.95 C 114.38 72.54 114.40 68.13 114.32 63.73 C 110.35 63.66 106.37 63.94 102.42 63.52 C 101.72 61.68 101.44 59.71 100.99 57.81 Z" />
<path fill="#191662" opacity="1.00" d=" M 10.64 68.03 C 10.99 66.61 10.70 64.19 12.74 64.03 C 12.79 68.23 12.66 72.44 12.79 76.64 L 13.27 76.68 C 16.91 76.85 20.55 76.79 24.19 76.76 L 24.52 76.79 C 25.47 79.85 26.47 82.90 27.43 85.96 C 27.36 86.69 27.20 88.17 27.13 88.90 C 24.62 90.35 22.32 92.14 20.18 94.09 C 18.84 94.62 18.73 95.35 19.87 96.26 C 22.13 99.17 23.51 103.56 27.01 105.02 C 27.93 104.64 28.77 104.12 29.53 103.46 C 31.59 101.62 33.83 100.00 36.08 98.40 C 37.89 99.86 39.67 101.34 41.53 102.73 C 39.56 102.89 37.98 101.49 36.11 101.22 C 32.10 101.77 29.72 107.01 25.36 105.72 C 22.36 103.37 20.15 100.08 18.05 96.92 C 16.15 92.74 21.44 91.04 23.96 88.99 C 28.66 86.43 23.68 81.58 22.58 78.21 C 18.93 77.68 14.28 81.40 11.68 77.48 C 10.92 74.40 10.42 71.20 10.64 68.03 Z" />
<path fill="#191662" opacity="1.00" d=" M 148.66 76.32 L 149.34 76.27 C 151.49 78.81 149.59 82.59 150.40 85.64 C 152.83 87.68 155.96 88.94 159.05 89.61 C 162.24 88.49 163.14 84.62 165.32 82.31 C 170.18 80.98 173.73 85.23 177.30 87.72 C 179.03 88.76 178.94 91.27 177.82 92.71 C 176.24 95.09 174.53 97.38 173.19 99.90 C 174.83 102.23 176.31 104.77 178.55 106.59 C 182.35 106.54 184.98 102.51 188.97 103.25 C 190.46 102.97 190.60 104.92 191.08 105.86 C 192.18 109.53 193.34 113.29 193.43 117.15 C 191.92 121.18 186.31 119.99 183.69 122.76 C 182.91 125.85 183.33 129.07 183.55 132.21 C 186.31 133.17 190.36 132.90 191.62 136.09 C 188.63 135.06 185.62 134.03 182.46 133.64 L 181.56 133.51 C 181.71 129.50 181.71 125.48 181.44 121.47 C 185.22 119.96 189.13 118.79 192.97 117.41 C 191.60 113.37 190.24 109.32 188.95 105.25 C 187.80 105.53 186.66 105.83 185.52 106.13 C 185.28 106.20 184.82 106.33 184.59 106.39 C 182.03 107.08 179.52 107.92 176.98 108.65 L 176.86 108.58 C 175.35 105.38 173.30 102.50 170.95 99.88 C 173.29 96.58 175.72 93.32 177.92 89.92 C 177.34 89.55 176.20 88.81 175.63 88.44 C 175.41 88.30 174.96 88.02 174.74 87.88 C 172.36 86.27 170.47 83.91 167.85 82.70 C 165.84 83.09 165.29 85.38 164.11 86.76 C 164.05 86.86 163.92 87.04 163.86 87.13 C 162.75 88.68 161.61 90.20 160.44 91.70 C 156.60 90.25 152.74 88.71 148.63 88.18 C 148.51 84.49 148.63 80.80 148.65 77.11 C 148.65 76.91 148.66 76.52 148.66 76.32 Z" />
<path fill="#191662" opacity="1.00" d=" M 90.45 99.38 C 91.62 98.60 92.74 100.00 93.73 100.47 C 90.45 101.69 87.18 103.17 84.53 105.50 C 83.41 107.68 85.41 109.82 85.90 111.91 C 86.89 113.97 85.98 116.16 85.35 118.16 C 80.90 119.01 76.22 122.78 71.75 120.19 C 69.64 117.81 69.99 114.30 68.63 111.53 C 65.42 111.60 61.88 110.32 58.92 111.82 C 57.82 114.41 56.94 117.15 54.95 119.23 C 55.95 116.07 56.84 112.89 57.53 109.66 L 57.63 109.24 C 61.60 109.48 65.59 109.50 69.56 109.27 L 69.65 109.59 C 70.50 113.30 71.70 116.90 72.95 120.48 C 74.43 119.94 75.92 119.41 77.42 118.91 L 77.73 118.86 C 80.39 118.17 83.02 117.34 85.61 116.43 C 84.35 112.69 83.18 108.91 82.08 105.12 C 84.98 103.37 87.58 101.17 90.45 99.38 Z" />
<path fill="#191662" opacity="1.00" d=" M 134.48 101.22 C 139.68 99.64 145.35 99.65 150.51 101.43 C 145.19 102.38 139.80 101.79 134.48 101.22 Z" />
<path fill="#191662" opacity="1.00" d=" M 119.59 111.59 C 123.44 106.94 128.23 102.61 134.29 101.27 C 132.36 104.24 128.59 104.83 126.05 107.10 C 119.32 112.89 115.42 122.18 117.04 131.04 C 117.55 135.29 120.29 138.88 120.73 143.13 L 120.10 143.16 C 116.84 137.72 114.34 131.47 115.00 125.01 C 115.28 120.70 117.02 116.70 118.84 112.85 C 119.03 112.54 119.41 111.91 119.59 111.59 Z" />
<path fill="#191662" opacity="1.00" d=" M 150.75 101.50 C 163.38 105.06 171.64 119.28 168.92 132.05 C 166.94 142.26 158.73 151.04 148.54 153.33 C 138.60 155.88 127.46 152.08 121.10 144.05 C 124.70 144.37 126.56 147.92 129.70 149.23 C 132.69 150.54 135.75 152.05 139.05 152.28 C 142.37 151.95 145.70 151.84 149.04 151.78 C 157.48 149.39 164.51 142.31 166.82 133.83 C 169.53 124.93 166.73 114.48 159.63 108.37 C 156.97 105.67 152.95 104.69 150.75 101.50 Z" />
<path fill="#191662" opacity="1.00" d=" M 93.88 105.78 C 94.30 105.58 95.13 105.19 95.54 104.99 C 94.29 109.15 92.90 113.27 91.49 117.38 C 95.26 118.61 99.04 119.83 102.79 121.12 C 102.59 125.06 102.59 129.00 102.78 132.94 C 99.09 134.00 95.42 135.10 91.83 136.47 C 93.18 132.24 99.59 134.15 101.18 130.03 C 101.94 127.80 102.00 125.12 101.05 122.94 C 98.33 120.63 94.64 120.01 91.39 118.73 C 90.15 114.20 92.30 109.91 93.88 105.78 Z" />
<path fill="#191662" opacity="1.00" d=" M 90.92 136.01 L 91.24 136.69 C 93.07 140.66 94.06 144.95 95.58 149.04 C 99.42 147.94 103.25 146.81 107.07 145.65 C 108.99 148.82 111.43 151.62 113.56 154.64 C 112.13 157.98 109.24 160.43 107.51 163.61 C 105.51 161.38 108.89 159.72 109.83 157.91 C 112.53 154.92 109.38 151.15 107.23 148.89 C 102.98 145.37 97.85 153.47 93.94 149.00 C 92.65 145.35 91.85 141.47 89.51 138.27 C 89.87 137.71 90.57 136.58 90.92 136.01 Z" />
<path fill="#191662" opacity="1.00" d=" M 124.16 162.72 C 124.40 162.69 124.88 162.63 125.12 162.60 C 128.37 164.24 131.87 165.29 135.44 165.98 C 135.50 169.96 135.51 173.95 135.47 177.94 C 139.97 178.17 144.48 178.18 148.98 177.97 C 148.94 173.97 148.98 169.96 149.03 165.96 C 150.80 165.53 152.56 165.11 154.33 164.68 C 154.03 166.63 151.74 166.77 150.35 167.59 C 150.25 170.74 150.51 173.89 150.41 177.05 C 150.08 178.23 149.23 179.55 147.84 179.46 C 143.60 179.74 139.35 179.41 135.12 179.56 C 132.47 175.90 135.44 170.96 132.91 167.21 C 130.59 166.02 127.91 165.15 125.28 165.37 C 122.12 167.09 121.49 171.67 117.99 172.96 C 115.93 173.91 114.55 171.64 113.16 170.57 C 111.17 168.42 107.08 168.41 106.90 164.86 C 109.01 166.22 111.11 167.58 113.21 168.97 C 113.38 169.09 113.73 169.33 113.90 169.45 C 115.04 170.26 116.17 171.10 117.30 171.94 C 119.84 169.06 121.94 165.84 124.16 162.72 Z" />
<path fill="#191662" opacity="1.00" d=" M 154.46 164.64 C 156.28 164.05 158.09 163.41 159.91 162.80 C 162.08 165.84 164.24 168.88 166.46 171.89 C 163.01 171.48 162.03 167.44 159.85 165.25 C 158.04 165.24 156.22 165.07 154.46 164.64 Z" />
</g>
<g id="#cec276ff">
<path fill="#cec276" opacity="1.00" d=" M 72.85 20.27 C 75.81 21.02 78.75 21.80 81.70 22.58 L 82.36 22.87 C 83.45 23.40 84.53 23.93 85.61 24.48 C 84.25 28.14 83.08 31.87 82.01 35.62 C 85.49 37.57 88.75 39.90 91.73 42.55 C 94.88 40.19 97.86 37.48 101.59 36.05 C 103.99 39.49 106.50 42.85 108.96 46.25 C 105.95 48.86 102.70 51.19 99.30 53.25 C 99.41 49.25 105.58 49.10 105.84 45.28 C 104.67 42.64 102.70 40.46 101.01 38.13 C 97.27 39.71 93.84 43.95 89.46 42.49 C 86.42 40.80 83.47 38.69 81.28 35.96 C 80.95 32.29 82.91 28.84 82.91 25.17 C 80.84 23.70 78.38 22.81 75.88 22.43 C 74.75 22.04 73.95 22.38 73.47 23.44 C 72.13 26.06 71.81 29.24 69.52 31.31 C 70.48 27.59 71.66 23.93 72.85 20.27 Z" />
</g>
<g id="#fee72bff">
<path fill="#fee72b" opacity="1.00" d=" M 73.47 23.44 C 73.95 22.38 74.75 22.04 75.88 22.43 C 78.38 22.81 80.84 23.70 82.91 25.17 C 82.91 28.84 80.95 32.29 81.28 35.96 C 83.47 38.69 86.42 40.80 89.46 42.49 C 93.84 43.95 97.27 39.71 101.01 38.13 C 102.70 40.46 104.67 42.64 105.84 45.28 C 105.58 49.10 99.41 49.25 99.30 53.25 C 99.28 53.51 99.23 54.02 99.21 54.28 C 98.96 58.02 99.57 62.07 101.87 65.13 C 105.13 65.78 108.49 65.40 111.79 65.35 C 112.89 68.32 113.31 71.45 112.74 74.58 C 109.36 74.86 105.91 74.87 102.61 75.75 C 101.10 76.12 100.74 77.82 100.24 79.06 C 99.29 82.01 98.31 84.97 97.87 88.04 C 99.21 91.72 104.53 92.11 105.77 95.96 C 104.51 98.42 102.81 100.63 101.28 102.93 C 97.71 102.10 95.02 99.58 91.99 97.71 C 88.59 97.60 85.98 100.52 83.29 102.28 C 78.87 105.21 83.04 110.62 82.82 114.69 C 81.12 116.08 79.29 117.32 77.73 118.86 L 77.42 118.91 C 71.99 118.70 72.86 112.41 69.65 109.59 L 69.56 109.27 C 69.42 108.86 69.15 108.03 69.02 107.62 C 65.35 107.50 61.67 107.66 58.01 107.93 C 57.92 108.25 57.73 108.91 57.63 109.24 L 57.53 109.66 C 55.38 112.36 54.24 115.64 53.23 118.90 C 50.15 117.97 47.09 116.96 44.06 115.88 C 44.51 112.35 45.16 108.85 45.73 105.35 L 44.97 104.84 C 43.83 104.11 42.65 103.47 41.53 102.73 C 39.67 101.34 37.89 99.86 36.08 98.40 C 33.83 100.00 31.59 101.62 29.53 103.46 C 24.92 102.99 23.36 98.42 21.41 94.96 C 23.81 93.13 26.20 91.29 28.64 89.52 C 28.66 85.41 27.98 81.32 26.56 77.46 C 26.05 77.29 25.03 76.95 24.52 76.79 L 24.19 76.76 C 20.84 76.51 17.49 76.28 14.14 75.93 C 13.71 72.32 13.72 68.67 14.18 65.06 C 17.83 64.78 21.49 64.62 25.15 64.66 C 25.87 60.25 28.51 56.40 29.02 51.96 C 25.94 49.76 22.38 48.13 20.02 45.02 C 22.00 42.37 24.00 39.72 25.87 36.99 C 30.95 36.67 32.62 43.11 37.47 42.99 C 39.28 39.69 42.49 38.11 45.77 36.68 C 45.94 32.51 43.20 28.60 44.31 24.35 C 47.28 22.42 50.91 22.33 54.32 22.22 C 55.06 25.34 55.86 28.53 57.68 31.22 L 57.88 31.56 C 58.21 31.92 58.88 32.65 59.21 33.01 C 62.05 33.33 64.92 33.40 67.77 33.19 C 68.14 32.81 68.87 32.05 69.23 31.67 C 69.30 31.58 69.45 31.40 69.52 31.31 C 71.81 29.24 72.13 26.06 73.47 23.44 M 54.09 43.28 C 45.75 46.59 38.32 53.33 36.20 62.32 C 33.14 72.62 36.35 84.35 44.33 91.54 C 46.09 92.82 47.97 94.88 50.39 94.18 C 50.41 94.19 50.46 94.21 50.49 94.22 C 50.71 94.82 51.15 96.00 51.37 96.59 C 58.63 99.33 66.71 99.47 74.07 97.04 C 76.97 96.19 80.67 94.72 80.94 91.21 C 81.44 90.81 81.92 90.37 82.36 89.91 C 83.83 89.98 85.49 89.80 86.15 88.28 C 89.57 83.15 92.00 77.25 92.33 71.04 C 92.52 57.69 82.50 44.53 69.08 42.42 C 64.10 42.25 58.93 41.86 54.09 43.28 Z" />
<path fill="#fee72b" opacity="1.00" d=" M 12.74 63.83 L 13.10 63.83 C 17.09 63.89 21.07 63.87 25.05 63.71 L 24.89 64.28 C 20.99 64.42 17.09 64.34 13.19 64.23 C 13.34 68.38 13.36 72.53 13.27 76.68 L 12.79 76.64 C 12.66 72.44 12.79 68.23 12.74 64.03 L 12.74 63.83 Z" />
<path fill="#fee72b" opacity="1.00" d=" M 148.05 76.05 L 148.66 76.32 C 148.66 76.52 148.65 76.91 148.65 77.11 C 148.63 80.80 148.51 84.49 148.63 88.18 C 151.35 91.53 156.15 91.81 160.05 92.97 C 163.15 93.10 163.74 89.48 163.86 87.13 C 163.92 87.04 164.05 86.86 164.11 86.76 C 165.40 86.09 166.72 85.47 168.04 84.86 C 170.06 86.28 172.32 87.33 174.74 87.88 C 174.96 88.02 175.41 88.30 175.63 88.44 C 174.94 90.39 174.43 92.48 173.07 94.10 C 171.63 96.09 169.17 98.12 170.33 100.88 C 171.64 104.03 173.82 106.92 176.86 108.58 L 176.98 108.65 C 179.76 110.69 182.95 109.01 184.59 106.39 C 184.82 106.33 185.28 106.20 185.52 106.13 C 189.10 107.99 190.69 112.56 190.38 116.36 C 187.27 118.05 183.62 118.53 180.62 120.44 C 179.82 124.70 180.19 129.05 180.28 133.35 C 180.60 133.39 181.24 133.47 181.56 133.51 L 182.46 133.64 C 184.86 135.68 187.83 136.78 190.77 137.75 C 190.00 140.57 189.49 143.51 188.16 146.15 C 184.32 148.97 180.25 142.73 176.37 145.35 C 173.83 147.81 171.24 150.62 170.10 154.01 C 169.26 158.21 174.31 160.13 174.79 163.89 C 173.38 165.56 171.65 166.99 170.69 169.00 L 170.26 169.77 C 165.60 169.92 164.02 165.52 161.54 162.53 C 157.30 161.39 152.83 163.36 148.91 164.90 C 146.38 167.99 148.78 172.62 147.09 176.05 C 144.34 177.45 140.44 177.96 137.64 176.43 C 136.15 172.80 136.83 168.70 136.42 164.87 C 132.67 164.01 129.05 162.13 125.12 162.60 C 124.88 162.63 124.40 162.69 124.16 162.72 C 122.07 164.14 120.90 166.41 119.51 168.44 C 118.52 170.72 115.77 169.55 113.90 169.45 C 113.73 169.33 113.38 169.09 113.21 168.97 C 111.97 167.03 110.68 165.12 109.29 163.28 C 111.13 160.37 114.84 157.91 114.60 154.17 C 112.61 150.77 110.70 146.67 107.10 144.76 C 103.45 144.64 100.01 146.54 96.40 147.04 C 95.13 143.80 94.02 140.40 94.49 136.86 C 97.57 135.98 100.99 135.56 103.55 133.48 C 104.94 129.54 104.56 125.06 103.91 120.99 C 101.79 117.95 97.37 118.52 94.53 116.44 C 93.92 113.17 95.60 110.04 96.43 106.95 C 100.24 106.95 103.59 109.74 107.33 109.38 C 110.91 106.61 113.62 102.49 115.11 98.19 C 114.73 98.58 113.95 99.35 113.57 99.74 C 113.43 99.25 113.16 98.26 113.03 97.76 C 112.64 94.88 110.92 92.56 109.01 90.50 C 111.36 87.69 114.35 85.53 117.80 84.28 C 119.49 86.80 120.86 89.71 123.40 91.50 C 126.16 92.66 129.02 91.23 131.57 90.19 C 133.18 89.89 134.79 89.60 136.41 89.31 C 136.55 85.89 136.46 82.45 136.94 79.05 C 138.97 76.13 143.04 77.75 146.01 77.49 C 146.78 78.29 147.56 79.10 148.33 79.90 C 148.23 78.61 148.14 77.33 148.05 76.05 M 125.60 103.56 C 122.95 105.54 119.45 107.88 119.59 111.59 C 119.41 111.91 119.03 112.54 118.84 112.85 C 118.80 112.34 118.72 111.33 118.69 110.82 C 112.63 118.49 111.88 129.51 115.78 138.33 C 116.73 140.24 117.50 143.13 120.10 143.16 L 120.73 143.13 L 121.10 144.05 L 120.37 144.17 L 120.11 144.83 C 123.34 150.66 129.97 153.18 136.01 155.02 C 142.26 156.00 148.97 155.75 154.67 152.71 C 170.70 145.79 176.12 122.57 164.72 109.30 C 159.22 102.07 149.98 98.09 140.98 98.44 C 135.43 98.19 130.24 100.78 125.60 103.56 Z" />
</g>
<g id="#efe755ff">
<path fill="#efe755" opacity="1.00" d=" M 57.88 31.56 C 61.66 31.31 65.46 31.26 69.23 31.67 C 68.87 32.05 68.14 32.81 67.77 33.19 C 64.92 33.40 62.05 33.33 59.21 33.01 C 58.88 32.65 58.21 31.92 57.88 31.56 Z" />
</g>
<g id="#2a1c65ff">
<path fill="#2a1c65" opacity="1.00" d=" M 22.74 37.57 C 23.84 35.95 25.27 33.70 27.59 34.43 C 30.66 35.70 33.06 38.17 35.93 39.82 C 37.59 38.97 39.18 36.78 41.26 38.26 C 39.23 39.42 37.42 42.70 34.73 41.46 L 34.13 41.08 C 31.69 39.07 29.11 37.22 26.50 35.41 C 24.19 38.89 21.36 42.02 19.34 45.69 C 22.35 48.58 26.97 50.22 28.46 54.40 C 26.65 57.22 25.81 60.48 25.05 63.71 C 21.07 63.87 17.09 63.89 13.10 63.83 L 13.58 62.47 C 16.58 61.24 19.98 62.65 23.13 62.57 C 24.22 59.56 25.74 56.50 25.58 53.23 C 23.96 49.64 18.09 49.39 17.62 44.97 C 18.92 42.25 21.13 40.11 22.74 37.57 Z" />
</g>
<g id="#37294cff">
<path fill="#37294c" opacity="1.00" d=" M 45.17 33.89 C 45.31 35.98 43.51 37.47 41.66 38.01 C 41.15 36.11 43.56 34.39 45.17 33.89 Z" />
</g>
<g id="#d6c96aff">
<path fill="#d6c96a" opacity="1.00" d=" M 54.09 43.28 C 58.93 41.86 64.10 42.25 69.08 42.42 C 82.50 44.53 92.52 57.69 92.33 71.04 C 92.00 77.25 89.57 83.15 86.15 88.28 C 85.49 89.80 83.83 89.98 82.36 89.91 C 87.26 84.89 90.60 78.13 90.61 71.02 C 91.19 60.17 84.02 49.72 74.18 45.47 C 65.80 42.04 55.59 42.85 48.20 48.22 C 42.47 52.06 38.68 58.21 37.04 64.83 C 36.03 68.19 36.32 71.73 37.02 75.12 C 38.36 83.12 43.66 89.87 50.39 94.18 C 47.97 94.88 46.09 92.82 44.33 91.54 C 36.35 84.35 33.14 72.62 36.20 62.32 C 38.32 53.33 45.75 46.59 54.09 43.28 Z" />
</g>
<g id="#d9cc72ff">
<path fill="#d9cc72" opacity="1.00" d=" M 99.21 54.28 C 99.94 55.37 100.75 56.48 100.99 57.81 C 101.44 59.71 101.72 61.68 102.42 63.52 C 106.37 63.94 110.35 63.66 114.32 63.73 C 114.40 68.13 114.38 72.54 114.32 76.95 C 110.35 77.11 106.38 77.16 102.41 77.17 C 101.57 80.84 100.44 84.45 98.97 87.93 C 102.18 90.22 105.37 92.56 108.53 94.92 C 107.88 96.04 107.21 97.15 106.53 98.24 C 106.43 98.38 106.24 98.66 106.14 98.79 C 104.77 99.17 104.10 100.07 104.12 101.49 C 102.92 102.88 101.72 104.27 100.51 105.64 C 98.22 103.95 95.99 102.18 93.73 100.47 C 92.74 100.00 91.62 98.60 90.45 99.38 C 87.58 101.17 84.98 103.37 82.08 105.12 C 83.18 108.91 84.35 112.69 85.61 116.43 C 83.02 117.34 80.39 118.17 77.73 118.86 C 79.29 117.32 81.12 116.08 82.82 114.69 C 83.04 110.62 78.87 105.21 83.29 102.28 C 85.98 100.52 88.59 97.60 91.99 97.71 C 95.02 99.58 97.71 102.10 101.28 102.93 C 102.81 100.63 104.51 98.42 105.77 95.96 C 104.53 92.11 99.21 91.72 97.87 88.04 C 98.31 84.97 99.29 82.01 100.24 79.06 C 100.74 77.82 101.10 76.12 102.61 75.75 C 105.91 74.87 109.36 74.86 112.74 74.58 C 113.31 71.45 112.89 68.32 111.79 65.35 C 108.49 65.40 105.13 65.78 101.87 65.13 C 99.57 62.07 98.96 58.02 99.21 54.28 Z" />
</g>
<g id="#29174bff">
<path fill="#29174b" opacity="1.00" d=" M 135.76 75.91 C 138.94 73.52 143.39 75.25 147.09 74.44 C 147.33 74.84 147.81 75.65 148.05 76.05 C 143.95 75.95 139.85 76.08 135.76 75.91 Z" />
</g>
<g id="#1b1063ff">
<path fill="#1b1063" opacity="1.00" d=" M 133.84 79.87 C 133.96 78.48 132.76 75.46 135.44 75.90 C 135.49 79.98 135.43 84.07 135.30 88.15 C 133.87 88.37 132.45 88.63 131.04 88.92 C 131.78 85.84 134.53 83.22 133.84 79.87 Z" />
</g>
<g id="#c2b66bff">
<path fill="#c2b66b" opacity="1.00" d=" M 135.44 75.90 L 135.76 75.91 C 139.85 76.08 143.95 75.95 148.05 76.05 C 148.14 77.33 148.23 78.61 148.33 79.90 C 147.56 79.10 146.78 78.29 146.01 77.49 C 143.04 77.75 138.97 76.13 136.94 79.05 C 136.46 82.45 136.55 85.89 136.41 89.31 C 134.79 89.60 133.18 89.89 131.57 90.19 C 130.84 90.13 129.37 90.00 128.64 89.94 L 129.67 89.49 C 130.01 89.35 130.69 89.06 131.04 88.92 C 132.45 88.63 133.87 88.37 135.30 88.15 C 135.43 84.07 135.49 79.98 135.44 75.90 Z" />
</g>
<g id="#d5ca72ff">
<path fill="#d5ca72" opacity="1.00" d=" M 24.52 76.79 C 25.03 76.95 26.05 77.29 26.56 77.46 C 27.98 81.32 28.66 85.41 28.64 89.52 C 26.20 91.29 23.81 93.13 21.41 94.96 C 23.36 98.42 24.92 102.99 29.53 103.46 C 28.77 104.12 27.93 104.64 27.01 105.02 C 23.51 103.56 22.13 99.17 19.87 96.26 C 19.95 95.72 20.10 94.63 20.18 94.09 C 22.32 92.14 24.62 90.35 27.13 88.90 C 27.46 88.69 28.12 88.28 28.45 88.07 C 28.20 87.54 27.69 86.49 27.43 85.96 C 26.47 82.90 25.47 79.85 24.52 76.79 Z" />
</g>
<g id="#2d1e63ff">
<path fill="#2d1e63" opacity="1.00" d=" M 108.20 88.78 C 109.56 84.55 114.29 81.61 118.62 81.23 C 121.72 84.70 124.08 90.16 129.67 89.49 L 128.64 89.94 C 127.35 90.39 126.07 90.85 124.78 91.31 C 122.30 88.32 120.00 85.19 117.80 81.99 C 114.49 84.10 111.29 86.38 108.20 88.78 Z" />
</g>
<g id="#c9bd76ff">
<path fill="#c9bd76" opacity="1.00" d=" M 108.20 88.78 C 111.29 86.38 114.49 84.10 117.80 81.99 C 120.00 85.19 122.30 88.32 124.78 91.31 C 126.07 90.85 127.35 90.39 128.64 89.94 C 129.37 90.00 130.84 90.13 131.57 90.19 C 129.02 91.23 126.16 92.66 123.40 91.50 C 120.86 89.71 119.49 86.80 117.80 84.28 C 114.35 85.53 111.36 87.69 109.01 90.50 C 110.92 92.56 112.64 94.88 113.03 97.76 C 112.58 97.22 111.69 96.14 111.25 95.60 C 109.71 93.73 108.29 91.76 106.92 89.77 C 107.24 89.52 107.88 89.03 108.20 88.78 Z" />
</g>
<g id="#ccc27aff">
<path fill="#ccc27a" opacity="1.00" d=" M 164.11 86.76 C 165.29 85.38 165.84 83.09 167.85 82.70 C 170.47 83.91 172.36 86.27 174.74 87.88 C 172.32 87.33 170.06 86.28 168.04 84.86 C 166.72 85.47 165.40 86.09 164.11 86.76 Z" />
</g>
<g id="#5d5435ff">
<path fill="#5d5435" opacity="1.00" d=" M 27.43 85.96 C 27.69 86.49 28.20 87.54 28.45 88.07 C 28.12 88.28 27.46 88.69 27.13 88.90 C 27.20 88.17 27.36 86.69 27.43 85.96 Z" />
</g>
<g id="#e0d372ff">
<path fill="#e0d372" opacity="1.00" d=" M 160.44 91.70 C 161.61 90.20 162.75 88.68 163.86 87.13 C 163.74 89.48 163.15 93.10 160.05 92.97 C 156.15 91.81 151.35 91.53 148.63 88.18 C 152.74 88.71 156.60 90.25 160.44 91.70 Z" />
</g>
<g id="#d9cd75ff">
<path fill="#d9cd75" opacity="1.00" d=" M 175.63 88.44 C 176.20 88.81 177.34 89.55 177.92 89.92 C 175.72 93.32 173.29 96.58 170.95 99.88 C 173.30 102.50 175.35 105.38 176.86 108.58 C 173.82 106.92 171.64 104.03 170.33 100.88 C 169.17 98.12 171.63 96.09 173.07 94.10 C 174.43 92.48 174.94 90.39 175.63 88.44 Z" />
</g>
<g id="#dbcd72ff">
<path fill="#dbcd72" opacity="1.00" d=" M 67.13 97.16 C 72.13 96.30 76.94 94.35 80.94 91.21 C 80.67 94.72 76.97 96.19 74.07 97.04 C 66.71 99.47 58.63 99.33 51.37 96.59 C 51.15 96.00 50.71 94.82 50.49 94.22 C 53.21 95.26 55.96 96.27 58.80 96.95 C 61.52 97.70 64.37 97.71 67.13 97.16 Z" />
</g>
<g id="#120795ff">
<path fill="#120795" opacity="1.00" d=" M 109.58 95.76 C 110.00 95.72 110.83 95.64 111.25 95.60 C 111.69 96.14 112.58 97.22 113.03 97.76 C 113.16 98.26 113.43 99.25 113.57 99.74 C 112.68 100.66 111.81 101.60 110.94 102.54 C 109.60 102.81 108.86 103.61 108.70 104.95 C 108.55 105.48 108.24 106.55 108.09 107.08 C 106.74 106.65 105.39 106.73 104.04 107.31 C 102.76 106.86 101.49 106.40 100.20 105.99 L 100.51 105.64 C 101.72 104.27 102.92 102.88 104.12 101.49 C 105.51 101.14 106.18 100.24 106.14 98.79 C 106.24 98.66 106.43 98.38 106.53 98.24 C 107.48 97.34 108.52 96.54 109.58 95.76 Z" />
</g>
<g id="#ccc071ff">
<path fill="#ccc071" opacity="1.00" d=" M 115.11 98.19 C 113.62 102.49 110.91 106.61 107.33 109.38 C 103.59 109.74 100.24 106.95 96.43 106.95 C 95.60 110.04 93.92 113.17 94.53 116.44 C 97.37 118.52 101.79 117.95 103.91 120.99 C 104.56 125.06 104.94 129.54 103.55 133.48 C 100.99 135.56 97.57 135.98 94.49 136.86 C 94.02 140.40 95.13 143.80 96.40 147.04 C 100.01 146.54 103.45 144.64 107.10 144.76 C 110.70 146.67 112.61 150.77 114.60 154.17 C 114.84 157.91 111.13 160.37 109.29 163.28 C 110.68 165.12 111.97 167.03 113.21 168.97 C 111.11 167.58 109.01 166.22 106.90 164.86 C 107.05 164.55 107.36 163.92 107.51 163.61 C 109.24 160.43 112.13 157.98 113.56 154.64 C 111.43 151.62 108.99 148.82 107.07 145.65 C 103.25 146.81 99.42 147.94 95.58 149.04 C 94.06 144.95 93.07 140.66 91.24 136.69 L 91.83 136.47 C 95.42 135.10 99.09 134.00 102.78 132.94 C 102.59 129.00 102.59 125.06 102.79 121.12 C 99.04 119.83 95.26 118.61 91.49 117.38 C 92.90 113.27 94.29 109.15 95.54 104.99 C 97.10 105.30 98.68 105.53 100.20 105.99 C 101.49 106.40 102.76 106.86 104.04 107.31 C 105.14 108.13 107.66 109.06 108.09 107.08 C 108.24 106.55 108.55 105.48 108.70 104.95 C 110.13 104.89 110.87 104.09 110.94 102.54 C 111.81 101.60 112.68 100.66 113.57 99.74 C 113.95 99.35 114.73 98.58 115.11 98.19 Z" />
</g>
<g id="#d2c46fff">
<path fill="#d2c46f" opacity="1.00" d=" M 125.60 103.56 C 130.24 100.78 135.43 98.19 140.98 98.44 C 149.98 98.09 159.22 102.07 164.72 109.30 C 176.12 122.57 170.70 145.79 154.67 152.71 C 148.97 155.75 142.26 156.00 136.01 155.02 C 129.97 153.18 123.34 150.66 120.11 144.83 L 120.37 144.17 L 121.10 144.05 C 127.46 152.08 138.60 155.88 148.54 153.33 C 158.73 151.04 166.94 142.26 168.92 132.05 C 171.64 119.28 163.38 105.06 150.75 101.50 L 150.51 101.43 C 145.35 99.65 139.68 99.64 134.48 101.22 L 134.29 101.27 C 128.23 102.61 123.44 106.94 119.59 111.59 C 119.45 107.88 122.95 105.54 125.60 103.56 Z" />
</g>
<g id="#5b4760ff">
<path fill="#5b4760" opacity="1.00" d=" M 104.12 101.49 C 104.10 100.07 104.77 99.17 106.14 98.79 C 106.18 100.24 105.51 101.14 104.12 101.49 Z" />
</g>
<g id="#4e3d58ff">
<path fill="#4e3d58" opacity="1.00" d=" M 108.70 104.95 C 108.86 103.61 109.60 102.81 110.94 102.54 C 110.87 104.09 110.13 104.89 108.70 104.95 Z" />
</g>
<g id="#c1b572ff">
<path fill="#c1b572" opacity="1.00" d=" M 44.97 104.84 L 45.73 105.35 C 45.16 108.85 44.51 112.35 44.06 115.88 C 47.09 116.96 50.15 117.97 53.23 118.90 C 54.24 115.64 55.38 112.36 57.53 109.66 C 56.84 112.89 55.95 116.07 54.95 119.23 C 54.84 119.59 54.61 120.33 54.49 120.69 C 50.23 119.77 46.14 118.25 41.96 117.02 C 42.33 112.81 44.23 108.97 44.97 104.84 Z" />
</g>
<g id="#cbbe73ff">
<path fill="#cbbe73" opacity="1.00" d=" M 185.52 106.13 C 186.66 105.83 187.80 105.53 188.95 105.25 C 190.24 109.32 191.60 113.37 192.97 117.41 C 189.13 118.79 185.22 119.96 181.44 121.47 C 181.71 125.48 181.71 129.50 181.56 133.51 C 181.24 133.47 180.60 133.39 180.28 133.35 C 180.19 129.05 179.82 124.70 180.62 120.44 C 183.62 118.53 187.27 118.05 190.38 116.36 C 190.69 112.56 189.10 107.99 185.52 106.13 Z" />
</g>
<g id="#eedf74ff">
<path fill="#eedf74" opacity="1.00" d=" M 58.01 107.93 C 61.67 107.66 65.35 107.50 69.02 107.62 C 69.15 108.03 69.42 108.86 69.56 109.27 C 65.59 109.50 61.60 109.48 57.63 109.24 C 57.73 108.91 57.92 108.25 58.01 107.93 Z" />
</g>
<g id="#533956ff">
<path fill="#533956" opacity="1.00" d=" M 104.04 107.31 C 105.39 106.73 106.74 106.65 108.09 107.08 C 107.66 109.06 105.14 108.13 104.04 107.31 Z" />
</g>
<g id="#dacc67ff">
<path fill="#dacc67" opacity="1.00" d=" M 176.98 108.65 C 179.52 107.92 182.03 107.08 184.59 106.39 C 182.95 109.01 179.76 110.69 176.98 108.65 Z" />
</g>
<g id="#c6b773ff">
<path fill="#c6b773" opacity="1.00" d=" M 69.65 109.59 C 72.86 112.41 71.99 118.70 77.42 118.91 C 75.92 119.41 74.43 119.94 72.95 120.48 C 71.70 116.90 70.50 113.30 69.65 109.59 Z" />
</g>
<g id="#d7c870ff">
<path fill="#d7c870" opacity="1.00" d=" M 115.78 138.33 C 111.88 129.51 112.63 118.49 118.69 110.82 C 118.72 111.33 118.80 112.34 118.84 112.85 C 117.02 116.70 115.28 120.70 115.00 125.01 C 114.34 131.47 116.84 137.72 120.10 143.16 C 117.50 143.13 116.73 140.24 115.78 138.33 Z" />
</g>
<g id="#cabe77ff">
<path fill="#cabe77" opacity="1.00" d=" M 182.46 133.64 C 185.62 134.03 188.63 135.06 191.62 136.09 C 191.93 136.20 192.53 136.41 192.84 136.51 C 191.73 140.91 190.40 145.29 188.43 149.39 C 184.75 148.07 181.07 146.39 177.12 146.20 C 175.20 148.85 173.28 151.50 171.25 154.07 C 171.85 158.02 175.67 160.73 177.62 164.15 C 175.45 165.95 173.31 167.88 170.69 169.00 C 171.65 166.99 173.38 165.56 174.79 163.89 C 174.31 160.13 169.26 158.21 170.10 154.01 C 171.24 150.62 173.83 147.81 176.37 145.35 C 180.25 142.73 184.32 148.97 188.16 146.15 C 189.49 143.51 190.00 140.57 190.77 137.75 C 187.83 136.78 184.86 135.68 182.46 133.64 Z" />
</g>
<g id="#c3b577ff">
<path fill="#c3b577" opacity="1.00" d=" M 125.12 162.60 C 129.05 162.13 132.67 164.01 136.42 164.87 C 136.83 168.70 136.15 172.80 137.64 176.43 C 140.44 177.96 144.34 177.45 147.09 176.05 C 148.78 172.62 146.38 167.99 148.91 164.90 C 152.83 163.36 157.30 161.39 161.54 162.53 C 164.02 165.52 165.60 169.92 170.26 169.77 C 169.07 170.59 167.96 171.69 166.46 171.89 C 164.24 168.88 162.08 165.84 159.91 162.80 C 158.09 163.41 156.28 164.05 154.46 164.64 L 154.33 164.68 C 152.56 165.11 150.80 165.53 149.03 165.96 C 148.98 169.96 148.94 173.97 148.98 177.97 C 144.48 178.18 139.97 178.17 135.47 177.94 C 135.51 173.95 135.50 169.96 135.44 165.98 C 131.87 165.29 128.37 164.24 125.12 162.60 Z" />
</g>
</svg>
