<?xml version="1.0" encoding="UTF-8" ?>
<!DOCTYPE svg PUBLIC "-//W3C//DTD SVG 1.1//EN" "http://www.w3.org/Graphics/SVG/1.1/DTD/svg11.dtd">
<svg width="135pt" height="103pt" viewBox="0 0 135 103" version="1.1" xmlns="http://www.w3.org/2000/svg">
<g id="#ffffffff">
</g>
<g id="#000000ff">
<path fill="#000000" opacity="1.00" d=" M 13.21 13.22 C 14.99 12.27 17.06 12.66 18.99 12.58 C 51.35 12.60 83.70 12.58 116.06 12.59 C 119.45 12.44 122.33 15.66 122.00 18.99 C 122.00 39.66 122.00 60.34 122.00 81.01 C 122.33 84.35 119.43 87.57 116.05 87.41 C 82.70 87.41 49.36 87.41 16.01 87.41 C 12.63 87.60 9.70 84.42 10.00 81.08 C 10.00 60.39 10.00 39.70 10.00 19.01 C 9.82 16.66 11.08 14.26 13.21 13.22 M 18.07 17.54 C 19.02 18.06 19.99 18.54 20.88 19.18 C 34.75 29.63 48.66 40.05 62.57 50.46 C 64.49 52.05 67.57 52.03 69.48 50.43 C 81.86 41.20 94.18 31.89 106.56 22.65 C 108.96 20.86 111.22 18.84 113.93 17.54 C 110.09 16.29 106.01 17.05 102.05 16.85 C 97.37 17.01 92.65 16.51 88.01 17.10 C 86.68 16.85 85.35 16.76 84.00 16.83 C 67.34 17.04 50.63 16.50 33.99 17.10 C 28.73 16.82 23.24 16.31 18.07 17.54 M 14.36 19.90 C 14.34 39.88 14.20 59.87 14.43 79.85 C 22.36 69.96 30.33 60.12 38.34 50.30 C 39.39 48.54 41.64 49.33 42.53 50.80 C 42.36 51.28 42.03 52.24 41.87 52.72 C 35.04 61.21 28.16 69.67 21.30 78.14 C 20.08 79.76 18.54 81.19 17.86 83.15 C 36.91 82.97 55.99 83.47 75.01 82.90 C 80.63 83.32 86.38 83.32 92.00 82.90 C 97.96 83.29 104.03 83.23 110.00 82.91 C 111.42 83.19 112.85 83.27 114.29 83.14 C 113.28 81.07 111.65 79.41 110.28 77.59 C 103.95 69.88 97.74 62.07 91.42 54.36 C 90.59 53.32 89.41 52.30 89.63 50.80 C 90.27 49.13 92.68 48.65 93.64 50.28 C 101.71 60.05 109.53 70.04 117.65 79.77 C 117.65 59.74 117.77 39.71 117.59 19.68 C 102.64 31.05 87.54 42.22 72.55 53.53 C 69.09 56.37 63.69 56.62 60.07 53.96 C 44.78 42.68 29.78 30.98 14.36 19.90 Z" />
</g>
</svg>
