<?xml version="1.0" encoding="UTF-8" ?>
<!DOCTYPE svg PUBLIC "-//W3C//DTD SVG 1.1//EN" "http://www.w3.org/Graphics/SVG/1.1/DTD/svg11.dtd">
<svg width="169pt" height="145pt" viewBox="0 0 169 145" version="1.1" xmlns="http://www.w3.org/2000/svg">
<g id="#ffffffff">
</g>
<g id="#000000ff">
<path fill="#000000" opacity="1.00" d=" M 26.05 30.86 C 26.03 25.68 30.88 21.33 36.01 21.69 C 66.99 21.67 97.98 21.67 128.96 21.68 C 134.12 21.31 139.01 25.71 138.95 30.92 C 139.05 40.65 139.01 50.38 138.97 60.11 C 139.08 64.95 134.90 69.57 129.98 69.56 C 115.09 69.74 100.20 69.44 85.31 69.71 C 92.12 73.22 98.80 77.00 105.44 80.80 C 107.41 81.87 106.52 84.36 106.32 86.11 C 102.39 87.71 98.35 89.01 94.39 90.51 C 98.66 96.57 103.16 102.47 107.33 108.60 C 108.64 110.17 108.32 112.44 106.67 113.60 C 103.46 116.12 100.10 118.45 96.71 120.72 C 95.02 122.06 92.76 120.98 91.76 119.35 C 87.50 113.42 83.20 107.51 78.99 101.54 C 76.45 104.51 74.44 107.96 71.58 110.66 C 70.17 112.13 68.15 110.93 66.64 110.32 C 63.92 96.81 61.24 83.28 59.14 69.66 C 51.19 69.54 43.23 69.69 35.27 69.59 C 30.26 69.68 25.91 65.07 26.03 60.11 C 25.99 50.36 25.95 40.61 26.05 30.86 M 33.43 29.65 C 32.76 32.04 33.14 34.57 33.05 37.02 C 33.18 44.97 32.84 52.94 33.21 60.88 C 33.50 62.76 35.57 62.50 36.99 62.58 C 43.83 62.59 50.66 62.52 57.50 62.60 C 57.26 60.32 57.21 57.50 59.79 56.55 C 65.74 56.68 69.75 63.38 75.95 62.58 C 93.29 62.53 110.64 62.56 127.98 62.57 C 129.40 62.48 131.49 62.78 131.79 60.89 C 132.17 52.60 131.81 44.28 131.96 35.98 C 131.87 33.88 132.21 31.68 131.55 29.65 C 130.30 28.48 128.57 28.73 127.02 28.68 C 97.00 28.72 66.99 28.71 36.97 28.70 C 35.65 28.55 34.47 28.87 33.43 29.65 M 65.63 66.97 C 67.80 77.81 69.43 88.75 71.69 99.57 C 74.29 96.64 76.19 91.04 81.09 92.48 C 86.06 99.23 90.81 106.13 95.85 112.83 C 97.11 111.87 98.39 110.91 99.67 109.97 C 95.22 103.60 90.56 97.38 86.10 91.02 C 84.73 89.49 84.99 86.85 86.88 85.85 C 89.42 84.61 92.15 83.85 94.81 82.91 C 85.07 77.61 75.52 71.97 65.63 66.97 Z" />
<path fill="#000000" opacity="1.00" d=" M 35.68 40.04 C 35.38 37.81 38.49 36.55 40.16 37.81 C 41.85 40.64 42.38 43.97 43.16 47.12 C 44.51 44.06 44.43 40.14 46.93 37.72 C 49.36 36.32 51.58 38.47 52.28 40.72 C 52.67 42.89 53.28 45.01 53.88 47.12 C 54.88 44.05 55.44 40.80 56.97 37.93 C 58.54 36.66 60.28 37.78 61.71 38.65 C 60.69 44.38 58.62 49.88 56.43 55.25 C 55.58 55.69 54.73 56.14 53.89 56.59 C 49.85 55.13 49.94 50.30 48.69 46.87 C 47.81 49.61 46.94 52.35 46.06 55.09 C 45.58 55.38 44.63 55.95 44.15 56.23 C 43.73 56.29 42.89 56.41 42.47 56.46 C 41.26 55.38 40.06 54.20 39.63 52.58 C 38.25 48.42 36.66 44.32 35.68 40.04 Z" />
<path fill="#000000" opacity="1.00" d=" M 64.57 40.00 C 64.27 37.43 67.31 37.14 69.15 37.56 C 70.30 40.68 71.25 43.87 72.20 47.05 C 73.02 44.31 73.64 41.48 74.75 38.83 C 75.85 36.75 79.23 36.84 80.29 38.93 C 81.44 41.59 82.05 44.44 82.96 47.19 C 83.63 44.16 84.26 41.06 85.61 38.25 C 87.38 35.93 91.77 38.33 90.27 41.13 C 88.84 45.65 87.47 50.24 85.53 54.57 C 84.52 56.79 81.32 56.83 80.11 54.81 C 78.91 52.27 78.26 49.51 77.25 46.90 C 76.49 49.75 76.15 52.84 74.54 55.37 C 72.49 57.48 69.38 55.76 68.76 53.26 C 67.34 48.86 65.61 44.51 64.57 40.00 Z" />
<path fill="#000000" opacity="1.00" d=" M 93.36 40.02 C 93.22 37.40 96.21 37.08 98.12 37.64 C 99.15 40.77 100.10 43.91 101.01 47.06 C 101.90 44.23 102.53 41.29 103.75 38.57 C 104.96 36.74 108.13 36.91 109.11 38.89 C 110.31 41.53 110.93 44.38 111.98 47.08 C 112.29 45.41 112.62 43.75 112.99 42.10 C 113.77 40.45 113.82 37.60 116.11 37.37 C 118.02 36.99 120.18 39.05 119.23 40.99 C 117.77 45.78 116.02 50.49 114.20 55.16 C 113.72 55.45 112.75 56.04 112.27 56.33 C 111.92 56.31 111.23 56.27 110.89 56.25 C 110.40 55.97 109.43 55.42 108.95 55.15 C 107.97 52.41 107.09 49.64 106.06 46.93 C 105.55 49.85 104.78 52.73 103.56 55.44 C 102.70 55.78 101.85 56.12 100.99 56.46 C 100.19 56.08 99.40 55.70 98.60 55.33 C 96.60 50.32 94.78 45.21 93.36 40.02 Z" />
<path fill="#000000" opacity="1.00" d=" M 123.65 49.61 C 124.07 49.61 124.92 49.61 125.34 49.61 C 127.64 50.67 127.87 52.96 127.48 55.19 C 126.07 55.50 124.38 57.09 123.04 55.86 C 120.20 54.63 121.16 50.68 123.65 49.61 Z" />
</g>
</svg>
